<?xml version="1.0" standalone="no"?>
<!DOCTYPE svg PUBLIC "-//W3C//DTD SVG 1.1//EN" "http://www.w3.org/Graphics/SVG/1.1/DTD/svg11.dtd" >
<svg xmlns="http://www.w3.org/2000/svg">
<metadata>
Created by FontForge 20120731 at Tue Mar 21 10:28:27 2017
 By admin
</metadata>
<defs>
<font id="iconfont" horiz-adv-x="1024" >
  <font-face 
    font-family="iconfont"
    font-weight="500"
    font-stretch="normal"
    units-per-em="1024"
    panose-1="2 0 6 3 0 0 0 0 0 0"
    ascent="896"
    descent="-128"
    x-height="792"
    bbox="-0.533333 -214 1280 896.5"
    underline-thickness="0"
    underline-position="0"
    unicode-range="U+0078-E90B"
  />
<missing-glyph 
 />
    <glyph glyph-name=".notdef" 
 />
    <glyph glyph-name=".notdef" 
 />
    <glyph glyph-name=".null" horiz-adv-x="0" 
 />
    <glyph glyph-name="nonmarkingreturn" horiz-adv-x="341" 
 />
    <glyph glyph-name="x" unicode="x" horiz-adv-x="1001" 
d="M281 543q-27 -1 -53 -1h-83q-18 0 -36.5 -6t-32.5 -18.5t-23 -32t-9 -45.5v-76h912v41q0 16 -0.5 30t-0.5 18q0 13 -5 29t-17 29.5t-31.5 22.5t-49.5 9h-133v-97h-438v97zM955 310v-52q0 -23 0.5 -52t0.5 -58t-10.5 -47.5t-26 -30t-33 -16t-31.5 -4.5q-14 -1 -29.5 -0.5
t-29.5 0.5h-32l-45 128h-439l-44 -128h-29h-34q-20 0 -45 1q-25 0 -41 9.5t-25.5 23t-13.5 29.5t-4 30v167h911zM163 247q-12 0 -21 -8.5t-9 -21.5t9 -21.5t21 -8.5q13 0 22 8.5t9 21.5t-9 21.5t-22 8.5zM316 123q-8 -26 -14 -48q-5 -19 -10.5 -37t-7.5 -25t-3 -15t1 -14.5
t9.5 -10.5t21.5 -4h37h67h81h80h64h36q23 0 34 12t2 38q-5 13 -9.5 30.5t-9.5 34.5q-5 19 -11 39h-368zM336 498v228q0 11 2.5 23t10 21.5t20.5 15.5t34 6h188q31 0 51.5 -14.5t20.5 -52.5v-227h-327z" />
    <glyph glyph-name="tupian" unicode="&#xe60b;" 
d="M0 684v-832h1024v832h-1024zM960 -84h-896v704h896v-704zM704 460q0 40 28 68t68 28t68 -28t28 -68t-28 -68t-68 -28t-68 28t-28 68zM896 -20h-768l192 512l256 -320l128 96z" />
    <glyph glyph-name="receive" unicode="&#xe624;" 
d="M228 160h-182l266 -320l256 320h-160q0 66 -14 123.5t-37 98t-55 74t-63.5 55t-68.5 37.5t-64 24t-54.5 13.5t-37 6t-14.5 1.5v0q60 -37 98 -67.5t65 -63.5t40.5 -74.5t19 -89t5.5 -118.5v-20zM1024 0v768q0 13 -9.5 22.5t-22.5 9.5h-832q-13 0 -22.5 -9.5t-9.5 -22.5
v-91q71 -26 128 -73v68h640v-576h-167l-107 -128h370q13 0 22.5 9.5t9.5 22.5zM487 352q18 -59 20 -128h261v128h-281zM384 544v-28q47 -44 76 -100h308v128h-384z" />
    <glyph glyph-name="shezhi" unicode="&#xe606;" 
d="M895 364h-102q-11 48 -37 89l72 72q19 19 19 45.5t-19 45.5t-45.5 19t-45.5 -19l-72 -72q-41 26 -89 37v102q0 26 -18.5 45t-45.5 19t-45.5 -19t-18.5 -45v-102q-48 -11 -89 -37l-72 72q-19 19 -45.5 19t-45.5 -19t-19 -45.5t19 -45.5l72 -72q-26 -41 -37 -89h-102
q-26 0 -45 -18.5t-19 -45.5t19 -45.5t45 -18.5h102q11 -48 37 -89l-72 -72q-19 -19 -19 -45.5t19 -45.5t45.5 -19t45.5 19l72 72q41 -26 89 -37v-102q0 -26 18.5 -45t45.5 -19t45.5 19t18.5 45v102q48 11 89 37l72 -72q19 -19 45.5 -19t45.5 19t19 45.5t-19 45.5l-72 72
q26 41 37 89h102q26 0 45 18.5t19 45.5t-19 45.5t-45 18.5zM512 109q-79 0 -135 56t-56 135t56 135t135 56t135 -56t56 -135t-56 -135t-135 -56z" />
    <glyph glyph-name="daishoukuaidi" unicode="&#xe679;" 
d="M506 597l-159 95l-284 -150l119 -121zM506 243l-324 176l-117 -138l305 -181zM509 243l141 -142l310 176l-127 142zM654 47l-146 141l-134 -142l-187 116v-110l324 -188l326 185v113zM960 542l-291 150l-160 -95l324 -176z" />
    <glyph glyph-name="youjian" unicode="&#xe60a;" 
d="M512 729h349q71 0 95 -53q12 -27 -14 -43q-171 -107 -410 -260q-20 -13 -40 0q-185 118 -415 263q-17 11 -12 30q15 49 64 59q17 4 42 4h341zM511 40h-354q-73 0 -91 61q-6 20 11 31q40 25 151.5 95t172.5 108q13 9 29 0q27 -13 65 -40q17 -12 33 0q10 7 32 20t33 21
q15 11 33 -1q180 -115 319 -201q21 -14 12 -38q-19 -56 -92 -56h-354zM64 569q254 -162 291 -185q-53 -33 -150 -95t-141 -90v370zM960 569v-369h-1l-1 1l-1 1h-1l-1 1h-1l-1 1l-1 1h-1l-1 1l-1 1h-1l-1 1l-1 1h-2l-1 1l-1 1h-1l-1 1h-1l-1 1l-1 1h-1l-1 1l-1 1h-1l-1 1
l-1 1h-1l-1 1l-1 1h-1l-1 1h-1l-1 1l-1 1h-1l-1 1l-1 1h-1l-1 1l-1 1h-1l-1 1h-1l-1 1l-1 1h-1l-1 1l-1 1h-1l-1 1l-1 1h-1l-1 1l-1 1h-1l-1 1h-1l-1 1l-1 1h-1l-1 1l-1 1h-1l-1 1l-1 1h-1l-1 1h-1l-1 1l-1 1h-1l-1 1l-1 1h-1l-1 1l-1 1h-1l-1 1l-1 1h-1l-1 1h-1l-1 1l-1 1
h-1l-1 1l-1 1h-1l-1 1l-1 1h-1l-1 1h-1l-1 1l-1 1h-1l-1 1l-1 1h-1l-1 1l-1 1h-1l-1 1h-1l-1 1l-1 1h-1l-1 1l-1 1h-1l-1 1l-1 1h-1l-1 1h-1l-1 1l-1 1h-1l-1 1l-1 1h-1l-1 1l-1 1h-1l-1 1h-1l-1 1l-1 1h-1l-1 1l-1 1h-1l-1 1l-1 1h-1l-1 1l-1 1h-1l-1 1h-1l-1 1l-1 1h-1
l-1 1l-1 1h-1l-1 1l-1 1h-1l-1 1h-1l-1 1l-1 1h-1l-1 1l-1 1h-1l-1 1l-1 1h-1l-1 1h-1l-1 1l-1 1h-1l-1 1l-1 1h-1l-1 1l-1 1h-1l-1 1h-1l-1 1l-1 1h-1l-1 1l-1 1h-1l-1 1l-1 1h-1l-1 1h-1l-1 1l-1 1h-1l-1 1l-1 1h-1l-1 1l-1 1h-1l-1 1l-1 1h-1l-1 1h-1l-1 1l-1 1h-1l-1 1
l-1 1h-1l-1 1l-1 1h-1l-1 1h-1l-1 1l-1 1h-1l-1 1l-1 1h-1l-1 1h-1l-1 1l-1 1h-1l-1 1l-1 1h-1l-1 1l-1 1h-1l-1 1h-1l-1 1l-1 1h-1l-1 1l-1 1h-1l-1 1l-1 1h-1l-1 1h-1l-1 1l-1 1h-1l-1 1l-1 1h-1l-1 1l-1 1h-1l-1 1h-1l-1 1l-1 1h-1l-1 1l-1 1h-1l-1 1l-1 1h-1l-1 1h-1
l-1 1l-1 1h-1l-1 1l-1 1h-1l-1 1l-1 1h-1l-1 1h-1l-1 1l-1 1h-1l-1 1l-1 1h-1l-1 1l-1 1h-1l-1 1h-1l-1 1l-1 1h-1l-1 1q12 6 290 185z" />
    <glyph glyph-name="shanchu" unicode="&#xe60d;" 
d="M910 756h-76h-1.5h-2.5h-2.5h-1.5h-261v47q0 17 -12.5 29.5t-30.5 12.5q-3 0 -10 -1q-8 1 -11 1q-18 0 -30 -12.5t-12 -29.5v-47h-255q-5 1 -9.5 1t-9.5 -1h-75q-40 0 -40 -33q0 -17 11 -26.5t29 -9.5h48l1 -681q1 -34 24 -57t56 -23h42v-1l463 1v0h42q34 0 56.5 24
t22.5 60v678h45q18 0 30 9.5t12 26.5q0 32 -42 32zM794 80q0 -42 -10 -59.5t-38 -22.5h-477q-18 4 -27 13.5t-12 29.5l-1 646l565 1v-690v82zM406 615q-15 0 -25 -10t-10 -25v-477q0 -14 10 -24.5t25 -10.5t25 10.5t10 24.5v477q0 15 -10 25t-25 10zM618 615q-15 0 -25 -10
t-10 -25v-477q0 -14 10 -24.5t25 -10.5t25 10.5t10 24.5v477q0 15 -10 25t-25 10z" />
    <glyph glyph-name="tuikuan" unicode="&#xe6be;" 
d="M687 510q-10 10 -24 10t-24 -10l-91 -91l-90 91q-10 10 -24 10t-24 -10t-10 -24.5t10 -24.5l56 -56h-55q-6 0 -6 -6v-56q0 -6 6 -6h103v-46h-103q-6 0 -6 -7v-55q0 -7 6 -7h103v-103q0 -14 10 -24t24.5 -10t24.5 10t10 24v103h103q6 0 6 7v55q0 7 -6 7h-103v46h103
q6 0 6 6v56q0 6 -6 6h-55l56 56q10 10 10 24.5t-10 24.5zM968 517q-35 82 -98 145t-144 97q-85 36 -177.5 36t-176.5 -36q-82 -34 -145 -97t-97 -145q-15 -33 -23 -68l-23 51q-9 20 -31 20q-7 0 -14 -3q-13 -6 -18 -19t1 -26l70 -158q0 -2 1 -3v0q1 -1 1 -2v0l2 -2l0.5 -0.5
t0.5 -1.5l1 -1v0l1 -1l1 -1v0l0.5 -0.5l0.5 -0.5l1 -1h1l2 -2v0v0q1 0 2 -1v0l4 -2v0q1 0 2 -1h1v0h2v0v0v0q1 -1 2 -1h1v0h1v0h1h1h1v0h3v0v0h3h1q1 1 2 1v0h1q1 0 2 1v0v0q1 0 2 1v0h1v0q1 1 3 2v0v0q3 1 5 4l130 114q11 9 12 23t-9 25q-10 12 -25 12q-13 0 -23 -9
l-62 -54q26 135 133.5 224t246.5 89q104 0 193 -51.5t141 -140.5t52 -194t-52 -194t-141 -140.5t-193 -51.5q-143 0 -252 93q-9 8 -22 8q-16 0 -26 -12q-9 -11 -8 -25t12 -23q61 -53 137.5 -81.5t158.5 -28.5q92 0 177 36q81 35 144 97.5t98 144.5q35 85 35 177.5t-35 176.5
z" />
    <glyph glyph-name="menu" unicode="&#xe6c1;" 
d="M128 599h768q18 0 30.5 -12.5t12.5 -30.5t-12.5 -30.5t-30.5 -12.5h-768q-18 0 -30.5 12.5t-12.5 30.5t12.5 30.5t30.5 12.5zM128 87h768q18 0 30.5 -12.5t12.5 -30.5t-12.5 -30.5t-30.5 -12.5h-768q-18 0 -30.5 12.5t-12.5 30.5t12.5 30.5t30.5 12.5zM128 343h768
q18 0 30.5 -12.5t12.5 -30.5t-12.5 -30.5t-30.5 -12.5h-768q-18 0 -30.5 12.5t-12.5 30.5t12.5 30.5t30.5 12.5z" />
    <glyph glyph-name="dianhua" unicode="&#xe61a;" 
d="M952 134l-3 5l-10 11q-10 13 -38 36q-41 34 -75 56l-45 29l-20 10q-15 7 -34 1q-14 -5 -21 -17l-18 -27q-2 -4 -5 -9t-11.5 -22l-13.5 -27q-12 -21 -34 -30.5t-50 2.5q-96 54 -161 116q-94 89 -126 161q-8 12 -2 35t26 32q12 6 32 14t29 13q7 5 14 9t17 10q1 0 4 3l4 4
l2 2q18 17 9 40l-2 8q-14 30 -34 65q-16 27 -39 57q-15 20 -30.5 34.5t-23.5 18.5l-9 5l-12 6q-22 9 -46 -1q-15 -6 -29.5 -14.5t-20.5 -13.5t-25 -20q-42 -34 -65.5 -77t-17.5 -81q9 -67 82.5 -186t171 -211.5t222.5 -162t196 -78.5q74 -9 158 68q36 34 52 68q7 13 8.5 28
t-6.5 30v0zM952 134z" />
    <glyph glyph-name="sousuo" unicode="&#xe61c;" 
d="M927 -1l-157 169q51 55 79.5 125t28.5 148q0 108 -53.5 200t-146 146t-201 54t-200.5 -54t-145.5 -146t-53.5 -200.5t53.5 -200.5t145.5 -145.5t201 -53.5q130 0 235 77l158 -171q11 -12 28 -12q15 0 26 10q11 11 12 26.5t-10 27.5zM154 441q0 88 43.5 162.5t118 118
t162.5 43.5t162.5 -43.5t118 -118t43.5 -162.5t-43.5 -162.5t-118 -118t-162.5 -43.5t-162.5 43.5t-118 118t-43.5 162.5z" />
    <glyph glyph-name="201505020225304easyiconnet" unicode="&#xe613;" 
d="M321 657h44q6 0 10 4.5t4 10.5t-4 10t-10 4h-44q-6 0 -10.5 -4t-4.5 -10t4.5 -10.5t10.5 -4.5zM438 657h117q6 0 10 4.5t4 10.5t-4 10t-10 4h-117q-6 0 -10.5 -4t-4.5 -10t4.5 -10.5t10.5 -4.5zM601 170l-44 6l-18 41q-8 17 -27 17t-27 -17l-18 -41l-44 -6
q-18 -3 -23.5 -20t7.5 -30l31 -31l-10 -47q-4 -18 12 -30q7 -5 17 -5q8 0 15 4l40 24l44 -24q6 -4 14 -4q10 0 18 6q15 12 10 31l-12 45l31 31q13 13 7.5 30t-23.5 20zM559 103q-5 -5 -4 -12l15 -55l-51 29q-3 2 -7 2t-7 -2l-48 -29l12 55q1 7 -4 12l-38 38l52 8q7 1 11 8
l22 48l22 -48q4 -7 11 -8l52 -8zM700 341l48 47q7 6 7 21v132q33 12 56 44t23 70q0 48 -34.5 83.5t-82.5 35.5h-410q-48 0 -82 -35t-34 -84q0 -38 23.5 -70t57.5 -44v-132q0 -10 11 -21l46 -43q-50 -40 -78.5 -99t-28.5 -125q0 -120 85 -205.5t205 -85.5t205 85.5t85 205.5
q0 64 -27 121.5t-75 98.5zM594 399v141h102v-119l-44 -46q-3 2 -58 24zM564 540v-134q-23 5 -51 5q-27 0 -51 -5v134h102zM249 657q0 24 17 41.5t41 17.5h403h4q24 0 42 -18.5t18 -42.5q0 -25 -16.5 -40.5t-40.5 -15.5h-410q-24 0 -41 17t-17 41zM330 421v119h103v-141
q-45 -17 -54 -22zM512 -111q-96 0 -164 68t-68 163.5t68 163.5t164 68t164 -68t68 -163.5t-68 -163.5t-164 -68zM475 276h2q5 1 11 1t10 4t4 10t-4 10.5t-10 4.5q-7 0 -14 -1q-6 0 -10 -4.5t-3 -11.5q0 -5 4.5 -9t9.5 -4zM433 265q13 6 7 19t-19 7q-43 -19 -68.5 -59
t-25.5 -87q0 -6 4 -10.5t10 -4.5t10.5 4.5t4.5 10.5q0 38 21 71t56 49z" />
    <glyph glyph-name="wode" unicode="&#xe619;" 
d="M956 -111q2 -7 2 -13q0 -18 -13 -31t-31.5 -13t-31.5 13t-13 31v0h-1q-9 141 -111.5 238t-244.5 97t-244.5 -97t-111.5 -238h-1v0q0 -18 -13 -31t-31.5 -13t-31.5 13t-13 31q0 6 2 12q9 126 82.5 227t186.5 150q-53 38 -84 97t-31 128q0 115 82 196.5t197 81.5t197 -81.5
t82 -196.5q0 -66 -29 -123.5t-79 -96.5q119 -46 196.5 -148.5t87.5 -232.5zM690 489.5q0 78.5 -55.5 134t-134 55.5t-134 -55.5t-55.5 -134t55.5 -134t134 -55.5t134 55.5t55.5 134z" />
    <glyph glyph-name="yinxingqia" unicode="&#xe614;" 
d="M928 684h-832q-40 0 -68 -28t-28 -68v-576q0 -40 28 -68t68 -28h832q40 0 68 28t28 68v576q0 40 -28 68t-68 28zM960 12q0 -13 -9.5 -22.5t-22.5 -9.5h-832q-13 0 -22.5 9.5t-9.5 22.5v288h896v-288zM960 492h-896v96q0 13 9.5 22.5t22.5 9.5h832q13 0 22.5 -9.5
t9.5 -22.5v-96zM128 172h64v-128h-64v128zM256 172h64v-128h-64v128zM384 172h64v-128h-64v128z" />
    <glyph glyph-name="canyu" unicode="&#xe732;" 
d="M959 -49v0q0 4 -1 8q-16 122 -107 205q-47 43 -107 66q52 32 83 85.5t31 115.5q0 97 -69 166t-166.5 69t-166 -69t-68.5 -166q0 -63 30.5 -116t82.5 -85q-59 -23 -107 -66q-90 -82 -107 -203q-1 -4 -1 -9v-3v-1q0 -11 8.5 -19.5t20 -8.5t20 8t8.5 20v3v1v4q14 100 89 168
t176 73q8 -1 14.5 -1t14.5 1q101 -5 176 -73.5t90 -168.5v0v-3v-4v0q0 -12 8.5 -20t20 -8t19.5 8t9 20l-1 3v0zM443 431q0 75 52.5 127.5t127 52.5t127 -52.5t52.5 -127.5q0 -70 -47 -121t-116 -58q-8 1 -16 1t-17 -1q-69 6 -116 57.5t-47 121.5v0zM426 685h-3q-11 1 -22 1
q-97 0 -166 -68.5t-69 -166.5q0 -62 31 -115.5t83 -85.5q-60 -23 -107 -66q-90 -82 -107 -203q-2 -4 -2 -9l1 -3v0q0 -12 8 -20.5t20 -8.5t20 8.5t9 19.5l-1 4v0v4q15 100 90 168t175 73h1.5h0.5h3q12 0 20 8t8 20q0 17 -15 25q-5 2 -10 3h-3h-4l-2 -1q-69 7 -116.5 58
t-47.5 121v0q0 75 53 127.5t127 52.5l26 -1q11 0 19 8t8 20q0 11 -8.5 19t-19.5 8z" />
    <glyph glyph-name="zhifu" unicode="&#xe604;" 
d="M644 -158.5q0 22.5 -15.5 39t-37.5 17.5v0h-255q-23 0 -39.5 -16.5t-16.5 -39.5t16.5 -39.5t39.5 -16.5h255v0q22 1 37.5 17t15.5 38.5zM901 469l-310 309q-11 12 -28 12.5t-29 -11.5l-411 -402q-11 -12 -11.5 -28.5t11.5 -28.5l137 -141v3l190 -165h36q111 98 140 121
l8 7v0.5v0.5q-16 28 -29 54l-115 -116q-10 -9 -23 -9.5t-22 9.5l-240 246q-9 9 -8.5 22t9.5 23l328 321q10 9 23 9t22 -9l240 -237q9 -9 8.5 -22t-9.5 -23l-95 -95q7 -15 27 -58l151 151q11 12 11.5 28.5t-11.5 28.5zM280 138v-190q2 -4 5.5 -9.5t20 -14.5t39.5 -9h242
q16 -3 30 10q112 106 159 153q10 10 11.5 26t-2 29t-9.5 25l-76 162q0 1 -1.5 3t-6 6t-10.5 6.5t-16 2t-22 -5.5q-29 -13 -36.5 -29t-3.5 -44q3 -16 15 -42.5t24 -46.5l11 -19q2 -19 -10 -25q-5 -3 -42.5 -35t-72.5 -62.5t-35 -31.5h-52zM275 364l190 50l-56 55l27 27
l64 -65l37 37l-65 64l27 27l65 -65l53 53l33 -33l-53 -53l67 -67l-27 -27l-67 67l-36 -36l67 -67l-27 -27l-57 58l-50 -190l-38 38q41 138 54 172v1q-14 -6 -60 -20l-113 -34z" />
    <glyph glyph-name="xiaoxi" unicode="&#xe61e;" 
d="M595 668q0 32 -24.5 55.5t-58.5 23.5t-58.5 -23t-24.5 -56q0 -7 1 -14q-88 -29 -148 -111t-60 -183v-110v-5.5t-0.5 -14l-1 -21t-2 -25t-3.5 -26.5t-5 -24.5t-7 -21.5t-9.5 -14.5t-12.5 -6.5q-18 0 -30 -11.5t-12 -28t12 -28t29 -11.5h664q17 0 29 11.5t12 28t-12 28
t-29 11.5q-19 0 -29 39.5t-12 79.5l-1 39v111q0 103 -58.5 184.5t-149.5 110.5q1 6 1 13zM636 -28q0 -49 -36 -84t-88 -35q-51 0 -87.5 35t-36.5 84h248z" />
    <glyph glyph-name="shijian" unicode="&#xe6d1;" horiz-adv-x="1025" 
d="M874 746q-72 73 -165.5 111.5t-196 38.5t-196 -38.5t-166.5 -111t-111.5 -166t-38.5 -196.5t38.5 -196.5t111 -166t166 -111t196.5 -38.5t196.5 38.5t165.5 111.5q98 98 133 230t0 264t-133 230v0v0zM827 69q-63 -63 -144.5 -96.5t-170.5 -33.5t-170.5 33.5t-144.5 96.5
t-96.5 144.5t-33.5 170.5t33.5 170.5t96.5 144.5t144.5 96.5t170.5 33.5t170.5 -33.5t144.5 -96.5q85 -86 115.5 -200.5t0 -229t-115.5 -200.5v0v0zM733 259l-177 102v279q0 18 -12.5 30.5t-30 12.5t-30 -12.5t-12.5 -30.5v-299q0 -17 33 -36q2 -4 19 -14l176 -106
q15 -9 30 -4.5t24 19.5q8 16 2 32.5t-22 26.5v0v0zM733 259z" />
    <glyph glyph-name="qian" unicode="&#xe6e3;" 
d="M512 896q-139 0 -257 -68.5t-186.5 -186.5t-68.5 -257t68.5 -257t186.5 -186.5t257 -68.5t257 68.5t186.5 186.5t68.5 257t-68.5 257t-186.5 186.5t-257 68.5v0zM762 403v-100h-200v-48h200v-100h-200v-102h-100v102h-200v100h200v48h-200v100h188l-208 208l70 71
l200 -200l200 200l70 -71l-208 -208h188v0zM762 403z" />
    <glyph glyph-name="xueyuanxuexiao" unicode="&#xe6e4;" 
d="M536 845h-531q-5 0 -5 -5v-912q0 -5 5 -5h181v177h168v-177h182q4 0 4 5v912q0 5 -4 5zM231 233h-128v126h128v-126zM231 422h-128v126h128v-126zM231 611h-128v127h128v-127zM437 233h-128v126h128v-126zM437 422h-128v126h128v-126zM437 611h-128v127h128v-127z
M997 548h-350q-11 0 -18.5 -7.5t-7.5 -18.5v-596q0 -3 2 -3h141v117h119v-117h138q3 0 3 3v596q0 11 -8 18.5t-19 7.5zM969 138h-295v63h295v-63v0zM969 264h-295v63h295v-63v0zM969 390h-295v63h295v-63v0z" />
    <glyph glyph-name="qq" unicode="&#xe63f;" 
d="M154 435q-4 11 -4 30q0 11 6 28t14 26q-1 12 4 30t13 25q0 79 53 164.5t124 119.5q79 38 185 38q76 0 152 -31q28 -12 51.5 -27.5t40.5 -32.5t31.5 -39t24 -42t18.5 -48.5t14.5 -51t12.5 -55.5l1 -3q31 -48 31 -86q0 -8 -5 -23t-5 -22l1 -1.5l2 -3l1 -1.5q44 -66 69 -123
t25 -119q0 -25 -11 -57.5t-32 -32.5q-5 0 -11 4.5t-11 10t-11 15t-9 15.5t-7.5 14.5t-5.5 9.5q0 1 -1 1l-3 -2q-34 -88 -76 -128q12 -11 35.5 -21.5t39.5 -23.5t20 -38q-1 -2 -2 -9t-4 -10q-37 -55 -173 -55q-30 0 -63 5t-56 11t-60 17q-8 3 -13 4q-8 3 -26 3t-23 1
q-23 -26 -72.5 -37.5t-96.5 -11.5q-20 0 -39.5 1t-53 5t-57.5 11.5t-42.5 23t-18.5 36.5q0 23 5.5 34t23.5 28q6 1 23 7.5t28 6.5q2 0 8 1q1 2 1 3l-1 1q-27 7 -61.5 61t-41.5 89l-3 2q-2 0 -7 -12q-10 -23 -31 -42t-44 -22h-1q-2 0 -3.5 3t-2.5 3q-13 31 -13 57
q0 157 144 267z" />
    <glyph glyph-name="666" unicode="&#xe646;" 
d="M160 187q0 -20 11 -34.5t28 -14.5h11q16 0 27.5 14.5t11.5 34.5v343q0 21 -11.5 35t-27.5 14h-11q-16 0 -27.5 -14t-11.5 -35v-343v0zM772 187q0 -20 11 -34.5t27 -14.5h12q16 0 27.5 14.5t11.5 34.5v343q0 21 -11.5 35t-27.5 14h-12q-16 0 -27 -14t-11 -35v-343z
M134 564v-410q-45 12 -74.5 57t-29.5 104v87q0 59 29.5 104.5t74.5 57.5zM890 564v-410q45 12 74.5 57t29.5 104v87q0 59 -29.5 104.5t-74.5 57.5zM215 465v3.5v3.5q0 136 85.5 223.5t210 87.5t209.5 -87.5t85 -223.5v-7h25q2 16 2 33q0 98 -43.5 179t-117 127t-161.5 46
q-134 0 -227.5 -101.5t-93.5 -250.5q0 -16 1 -33h25zM590 117q119 -48 241 23h-20q-4 -3 -11 -7t-30 -12t-47 -12t-59.5 -0.5t-69.5 16.5zM565 134zM535 134q0 12 9 21t21.5 9t21 -9t8.5 -21t-8.5 -21t-21 -9t-21.5 9t-9 21z" />
    <glyph glyph-name="ershouwupin" unicode="&#xe6e5;" 
d="M930 552h-144l1 -1q23 -1 38.5 -17t15.5 -39t-16 -39.5t-39.5 -16.5t-39.5 16.5t-16 39.5v6l-49 51h-342l-49 -51q1 -3 1 -6q0 -23 -16.5 -39.5t-39.5 -16.5t-39.5 16.5t-16.5 39.5t16 39t38 17l1 1h-141q-12 0 -20.5 -8.5t-8.5 -20.5v-516q0 -12 8.5 -20.5t20.5 -8.5
h837q12 0 20.5 8.5t8.5 20.5v516q0 12 -8.5 20.5t-20.5 8.5zM230 349h230v-44h-230v44zM488 134h-286v44h286v-44zM846 192h-114v-45q0 -36 -40 -36h-53l-12 44l12 -1q22 -1 42 -1h4v39h-125v44h125v19h-100v44h100v18q-46 -3 -88 -3h-6l-16 42h12q125 0 212 18l6 1l24 -38
l-11 -3q-39 -9 -86 -14v-21h91v-44h-91v-19h114v-44zM275 495.5q0 -16.5 -12 -28.5t-28.5 -12t-28 12t-11.5 28.5t11.5 28t28 11.5t28.5 -11.5t12 -28zM785.5 535q16.5 0 28 -11.5t11.5 -28t-11.5 -28.5t-28 -12t-28 12t-11.5 28.5t11.5 28t28 11.5zM465 703l-219 -220
l-16 8q-7 7 -7 17.5t7 18.5l213 212q5 -21 22 -36zM794 491l-16 -8l-220 220q17 15 23 37l213 -213q7 -8 7 -18.5t-7 -17.5zM512 811q22 0 37.5 -16t15.5 -38t-15.5 -37.5t-37.5 -15.5t-38 15.5t-16 37.5t16 38t38 16z" />
    <glyph glyph-name="renzheng" unicode="&#xe64d;" 
d="M808 84q-40 -37 -109.5 -74.5t-106.5 -52t-65 -24.5q-5 1 -6 1q-30 10 -67 25t-105.5 51.5t-106.5 73.5q-78 72 -98 151v0v1v60v8v407l1 1q1 13 15 14v0.5v0.5q19 -1 23 -1q115 0 205 28.5t122 72.5h0.5h0.5q5 8 14 8q8 0 13 -8l0.5 0.5l0.5 0.5q32 -45 122.5 -73.5
t204.5 -28.5h6.5t7.5 0.5t7 0.5v-0.5v-0.5h0.5h0.5q7 0 11.5 -4.5t4.5 -11.5v0v-1.5v-0.5v0v-409v-3v-62q-20 -78 -96 -150zM706 555l-181 -212l-135 81l-51 -67l186 -141l244 283z" />
    <glyph glyph-name="laba" unicode="&#xe625;" 
d="M551 72q0 -61 -44 -45q-15 6 -15 7l-256 216h-39q-19 0 -32 13t-13 32v181q0 18 13 31.5t32 13.5h47l248 210q3 2 7 4t14 5t18 1t14 -14t6 -33v-622v0v0zM684 265q55 46 54 116t-54 110q-12 7 -23 -2.5t-16 -22.5l-5 -13q3 -4 7 -10t12.5 -24.5t11 -36t-4.5 -40
t-26 -39.5q-11 -15 5.5 -32.5t38.5 -5.5v0v0zM721 618q-5 5 -18 -3t-18 -21t7 -28q110 -94 110.5 -183t-110.5 -186q-16 -15 -2 -37t31 -15q59 27 97 76t47.5 106t-1.5 113.5t-48.5 104.5t-94.5 73v0v0zM721 618z" />
    <glyph glyph-name="qq1" unicode="&#xe64f;" 
d="M512 896q-212 0 -362 -150t-150 -362t150 -362t362 -150t362 150t150 362t-150 362t-362 150zM810 271v-4v-4l-1 -5l-1 -8l-2 -8l-2 -7l-1 -3l-1 -3l-1 -1l-2 -3l-2 -2l-2 -3l-2 -2l-2 -2l-2 -1l-2 -1l-2 -1h-1h-1l-1 1l-3 2l-1 1l-2 1l-2 2l-1 1l-3 3l-3 4l-3 3l-3 4
l-3 4l-4 7l-3 8v0h-1l-2 -1l-1 -2l-2 -3l-1 -6l-4 -11l-5 -11l-4 -6l-4 -7l-4 -8l-5 -6l-3 -4l-3 -4l-7 -7l1 -1l1 -1l4 -2l15 -6l7 -4l6 -4l6 -5l6 -5l3 -2l1 -3l2 -3l2 -2l1 -3l1 -3v-3l1 -3l-1 -2v-2v-2l-1 -2v-2l-1 -2l-5 -2l-2 -3l-2 -2l-2 -2l-4 -3l-5 -3l-5 -2l-6 -3
l-5 -2l-3 -1l-3 -1l-7 -2l-7 -2l-7 -1l-8 -1h-8l-9 -1h-8h-9h-9h-9l-9 1l-10 1l-9 1l-10 1l-10 2l-9 2l-9 3l-10 3l-9 3l-3 2l-4 2l-3 1l-3 1h-4h-4h-8h-5l-6 1l-4 -3l-5 -3l-6 -3l-8 -4l-5 -3l-5 -2l-10 -4l-6 -1l-6 -1l-9 -2h-5h-5l-6 -1h-7h-7h-6h-15h-15l-16 2l-8 1h-6
h-7l-7 1l-7 2l-6 2l-6 3l-6 2l-5 3l-5 3l-5 3l-2 2l-2 2l-2 2l-1 2l-1 2l-1 1l-1 4l-1 2l-1 3v2l1 3v3l1 3v2v4v2l1 3l1 3l2 4l1 1l1 2l3 4l2 2l1 1l2 2l3 1l3 2l3 2l4 1h4l4 1l4 1l4 1h5h1v0l1 1v1l1 -2l-3 1l-7 6l-4 4l-5 5l-5 5l-6 6l-7 8l-2 4l-2 4l-3 5l-3 5l-3 4l-2 6
l-3 6l-3 7l-2 6l-2 7h-1h-1v1h-1l-1 -1h-1l-1 -1v-2l1 -2l-1 -2l-2 -5l-2 -3l-3 -3l-2 -4l-3 -4l-3 -4l-4 -3l-4 -2l-4 -3l-3 -3l-4 -2h-5h-5v0h-1h-1l-1 2l-1 1l-2 4l-1 2l-1 3l-1 4l-1 3l-2 8l-1 5v4v11l1 12l1 5l1 6l1 7l2 6l2 7l2 6l3 7l3 7l3 6l3 6l4 7l4 8l5 7l5 7
l4 5l6 6l6 6l2 3l3 3l5 4l5 3l8 7l6 4l1 2v4l-1 5l-1 3v2v4v4l1 4l1 4l1 5l2 5l3 4l4 5v4v4l1 5l2 5l2 5l1 3l1 3l2 3l2 2v3v4v6l1 6l1 8l2 10l3 9l1 6l2 6l2 6l3 6l3 6l3 6l4 7l4 7l2 4l2 2l4 7l5 7l6 7l6 6l7 7l6 7l8 8l5 5l6 4l6 4l6 4l7 4l8 3l8 4l7 3l8 3l9 2l8 2l9 2
l9 1l8 1l9 1l10 1h8h9h10l9 -1l9 -1l10 -1l9 -2l9 -2l9 -2l10 -2l8 -3l9 -4l9 -4l7 -4l8 -5l8 -5l7 -4l1 -7l2 -2l6 -5l5 -5l5 -5l5 -5l6 -7l4 -6l4 -6l4 -6l4 -6l3 -6l5 -12l3 -5l2 -6l1 -6l2 -6l1 -5l2 -6l3 -10l2 -9l1 -9l1 -6l2 -11v-2l1 -2l4 -6l2 -3l2 -4l3 -4l2 -5
v-5l2 -6l1 -5l1 -3v-4v-3v-3v-4l-1 -4l-2 -6l-1 -6l-1 -4v-1l1 -1l1 -3l8 -12l7 -8l3 -6l4 -7l4 -7l3 -7l4 -9l5 -10l3 -5l3 -6l2 -6l2 -6l2 -6l2 -5l2 -11l2 -11v-9v-9h-1z" />
    <glyph glyph-name="yixuanzhong" unicode="&#xe652;" 
d="M352 720q-71 -32 -123 -89t-77.5 -125t-24 -145.5t34 -148.5t89.5 -123.5t125 -78t145.5 -23.5t148.5 34t123 89t77.5 125t24 145.5t-34 148.5t-89.5 123.5t-125 78t-145 23.5t-149 -34v0zM653 53q-64 -29 -134.5 -30.5t-132.5 21.5t-114 70.5t-81.5 112.5t-31 135
t22 132t71 114t112 81.5t135 31t132.5 -22t114 -71t81 -112t31 -135t-21.5 -132.5t-71 -114t-112.5 -81v0zM653 53zM352 720q-71 -32 -123 -89t-77.5 -125t-24 -145.5t34 -148.5t89.5 -123.5t125 -78t145.5 -23.5t148.5 34t123 89t77.5 125t24 145.5t-34 148.5t-89.5 123.5
t-125 78t-145 23.5t-149 -34v0zM653 53q-64 -29 -134.5 -30.5t-132.5 21.5t-114 70.5t-81.5 112.5t-31 135t22 132t71 114t112 81.5t135 31t132.5 -22t114 -71t81 -112t31 -135t-21.5 -132.5t-71 -114t-112.5 -81v0zM653 53zM381 657q-58 -26 -101 -73t-64 -103t-19.5 -119
t28 -121.5t73 -101.5t102.5 -64t119.5 -19.5t122 28t101 73.5t63.5 102.5t19.5 119t-28 122t-73 101.5t-102.5 64t-119.5 19.5t-121.5 -28.5v0zM636 95q-56 -25 -117 -26.5t-114.5 19t-98 61.5t-70 97t-27 116.5t18.5 114t61 98.5t97 70.5t117 26.5t114.5 -19t98.5 -61
t70 -97t26.5 -116.5t-18.5 -114t-61 -98.5t-97 -71v0zM636 95zM381 657q-58 -26 -101 -73t-64 -103t-19.5 -119t28 -121.5t73 -101.5t102.5 -64t119.5 -19.5t122 28t101 73.5t63.5 102.5t19.5 119t-28 122t-73 101.5t-102.5 64t-119.5 19.5t-121.5 -28.5v0zM636 95
q-56 -25 -117 -26.5t-114.5 19t-98 61.5t-70 97t-27 116.5t18.5 114t61 98.5t97 70.5t117 26.5t114.5 -19t98.5 -61t70 -97t26.5 -116.5t-18.5 -114t-61 -98.5t-97 -71v0zM636 95zM592 173l19 -14l22 5l-7 -22l12 -20h-23l-16 -18l-7 23l-21 9l19 13zM387 624l19 -14l23 5
l-8 -22l12 -20h-23l-15 -18l-7 23l-22 9l19 14zM682 243l19 -14l23 5l-7 -22l12 -20h-24l-15 -18l-7 23l-22 9l20 13zM497 652l19 -14l22 6l-7 -23l12 -20l-23 1l-16 -18l-7 22l-21 9l19 14zM737 336l19 -14l23 6l-7 -23l12 -20l-24 1l-15 -18l-7 22l-22 9l20 14zM600 638
l19 -14l23 5l-7 -22l12 -20h-24l-15 -18l-7 23l-22 9l20 13zM488 155l19 -14l23 5l-8 -22l13 -20h-24l-15 -18l-7 23l-22 9l19 13zM302 564l19 -14l23 5l-7 -22l12 -20h-24l-15 -18l-7 23l-22 9l20 14zM395 177l19 -14l23 6l-8 -23l13 -20l-24 1l-15 -18l-7 22l-22 9l19 14z
M258 479l19 -14l23 5l-8 -22l13 -20h-24l-15 -18l-7 23l-22 9l19 14zM424 316q14 0 24 2q4 -18 6 -27.5t-3.5 -17t-17.5 -12.5l-59 -27q-28 -13 -42 17l-26 58l20 9l6 -13l65 30l-13 28l-89 -40l-8 18l109 50l29 -66l-85 -39l11 -24q6 -13 19 -8l50 23q6 3 9 6.5t2 9
t-7 23.5zM597 354q2 -13 3 -20l-62 -28q-29 -13 -48 -6l-8 -23l-17 17q5 10 8 18l-15 34l-13 -6l-7 17l30 14l23 -51q16 -7 38 3l28 12q17 8 40 19zM434 413q16 -9 29 -17l-11 -17q-14 10 -29 18zM560 386q10 0 19 1q5 -16 5 -21t-3 -9.5t-9 -6.5l-10 -5q-16 -7 -24 11
l-10 21l-10 -4q7 -18 5.5 -29t-10.5 -23q-7 4 -18 8q5 6 7.5 14.5t-1.5 21.5l-20 -9l-7 16l40 18l-7 15l-19 -8q1 -8 1 -15q-9 1 -19 1q1 19 -3 43l19 2l1 -13l13 6l-10 20l18 8l10 -20l30 14l8 -16l-31 -14l7 -15l35 16l8 -15l-29 -14l8 -17q2 -6 6 -4l2 1q4 1 3.5 4
t-5.5 17zM607 494l21 10l10 -24l51 23l34 -76l-20 -9l-4 9l-31 -13l20 -44l-20 -9l-20 43l-30 -13l4 -10l-20 -9l-34 76l50 23zM609 409l31 14l-14 29l-30 -14zM677 475l-30 -14l13 -29l30 14z" />
    <glyph glyph-name="nv" unicode="&#xe658;" 
d="M512 896q-139 0 -257 -68.5t-186.5 -186.5t-68.5 -257t68.5 -257t186.5 -186.5t257 -68.5t257 68.5t186.5 186.5t68.5 257t-68.5 257t-186.5 186.5t-257 68.5zM754 246l-90 -54l53 -90q11 -18 6 -39t-23.5 -32.5t-40 -6t-32.5 24.5l-53 90l-90 -54q-19 -11 -40 -6t-32 24
t-6 40t24 32l90 54l-30 50q-78 -25 -155.5 3.5t-119.5 99.5q-50 84 -26 178.5t107.5 144.5t178.5 26t145 -107q42 -73 30.5 -154t-70.5 -137l30 -51l90 54q19 11 40 6t32 -24t5.5 -40t-23.5 -32zM350.5 615.5q-46.5 -27.5 -60 -80.5t14.5 -99.5t80.5 -59.5t99 14.5
t59.5 80.5t-14.5 99.5t-80 59.5t-99 -14.5z" />
    <glyph glyph-name="nan" unicode="&#xe659;" 
d="M512 896q-139 0 -257 -68.5t-186.5 -186.5t-68.5 -257t68.5 -257t186.5 -186.5t257 -68.5t257 68.5t186.5 186.5t68.5 257t-68.5 257t-186.5 186.5t-257 68.5zM831 461q0 -21 -15 -36t-36 -15t-35.5 15t-14.5 36v80l-99 -98q50 -73 41 -163.5t-73 -154.5
q-74 -74 -178 -74t-178 74t-74 178.5t74 178.5q64 64 154 72.5t163 -40.5l98 98h-80q-20 0 -35 15t-15 36t15 35.5t35 14.5h202q21 0 36 -14.5t15 -35.5v-202zM314 410.5q-44 -44.5 -44 -107t44 -107t107 -44.5t107 44.5t44 107t-44 107t-107 44.5t-107 -44.5z" />
    <glyph glyph-name="pingjia" unicode="&#xe620;" 
d="M746 417q77 58 142 129q43 47 41 100.5t-47 96.5q-67 64 -178 64.5t-178 -63.5q-31 -29 -46 -78q-8 -26 -25 -24q-21 3 -22 33q-1 24 16 50q83 132 253 133q173 1 255 -131q30 -48 21 -110.5t-52 -104.5q-27 -27 -57 -55t-72 -66t-59 -54l-3 -3t-4 -3.5t-3.5 -2.5
t-4.5 -2.5t-4.5 -0.5t-4.5 1q-15 6 -11 29q5 38 -12.5 55.5t-56.5 20.5q-36 2 -58 21q-19 16 -12 34q4 10 14 11.5t19 -1.5q116 -22 123 -23q14 -2 20.5 -10t6.5 -19.5t-1 -26.5zM337 260q68 7 134 -35t107.5 -108.5t47.5 -135.5q0 -1 1.5 -11.5t1 -14t-1.5 -11t-6 -11
t-13.5 -4.5t-14 1.5t-8.5 8.5t-4 10.5t-2 13.5t-1 12q-28 167 -173 227q-43 19 -89.5 12.5t-87.5 -30t-73.5 -65.5t-48.5 -95q-2 -6 -14 -61q0 -1 -1 -5t-1 -5t-1 -4.5t-1.5 -5t-2 -4.5t-2.5 -4l-3 -3t-4 -2.5t-4.5 -1t-5.5 -0.5q-7 1 -12 3.5t-6.5 7t-2.5 9.5t-0.5 10.5
t0.5 11.5q-2 31 21 93q13 37 40 73t62 66t80 46.5t89 11.5zM492 449q5 -44 -19 -82.5t-62 -59t-75 -19.5q-65 1 -110.5 45.5t-46.5 109.5q0 68 44.5 115.5t109.5 48.5t112 -45.5t47 -112.5zM335.5 337q43.5 0 78 33.5t34.5 76.5q0 42 -33.5 75t-76.5 33q-45 0 -79.5 -32
t-35.5 -76q0 -41 34.5 -75.5t78 -34.5z" />
    <glyph glyph-name="flag" unicode="&#xe62f;" horiz-adv-x="1026" 
d="M878 357l-93 294l-1 3v0q-10 26 -37 26q-5 0 -16 -3v0h-1q-28 -11 -60 -11q-75 0 -162 52q-83 50 -168 50q-52 0 -93 -21l-5 -5q-27 -15 -27 -48q0 -8 1 -13l98 -313l2 -5q9 -25 37 -25q8 0 17 5h1q1 0 2.5 1t1.5 2q42 22 94 22q80 0 161 -51q65 -41 141 -41q43 0 74 14
h1q16 6 25 20.5t9 32.5q0 2 -1 6.5t-1 7.5zM265 703l4 1q29 16 72 16q32 0 73 -12q34 -10 72 -32q98 -60 187 -60q40 0 72 13l88 -285l2 -3v-3q0 -6 -7 -9h-2q-53 -21 -116 -2q-33 9 -57 26q-93 58 -185 58q-63 0 -111 -27l-94 300l-1 6v1q-2 9 3 12zM374 -3q-8 0 -14.5 5
t-8.5 12l-213 683q-3 11 1 17q5 9 15 11q2 2 7 2q7 0 13.5 -5t8.5 -12l214 -683q3 -10 -1.5 -18t-14.5 -10h-1q-2 -2 -6 -2z" />
    <glyph glyph-name="qita" unicode="&#xe65c;" 
d="M944 451q0 -11 -8 -18.5t-18 -7.5h-343q-11 0 -19 7.5t-8 18.5v343q0 11 8 18.5t19 7.5h343q10 0 18 -7.5t8 -18.5v-343v0v0zM944 451zM944 -36q0 -11 -8 -18.5t-18 -7.5h-343q-11 0 -19 7.5t-8 18.5v343q0 11 8 18.5t19 7.5h343q10 0 18 -7.5t8 -18.5v-343v0v0zM944 -36
zM481 -36q0 -11 -8 -18.5t-18 -7.5h-344q-10 0 -18 7.5t-8 18.5v343q0 11 8 18.5t18 7.5h344q10 0 18 -7.5t8 -18.5v-343v0zM481 -36zM80 622q0 -40 15.5 -77.5t44 -66t66 -44t77.5 -15.5t77.5 15.5t66 44t44 66t15.5 78t-15.5 77.5t-44 66t-66 44.5t-77.5 15.5t-77.5 -15.5
t-66 -44.5t-44 -66t-15.5 -78v0zM80 622z" />
    <glyph glyph-name="kefu" unicode="&#xe65f;" horiz-adv-x="1026" 
d="M226 170q123 -92 292 -92q77 0 155.5 27.5t132.5 72.5q69 -37 119 -112t51 -153h-923q9 87 60 155t113 102v0zM800 225q-58 -52 -132 -81.5t-155.5 -29.5t-155.5 29t-132 82q-104 -52 -163.5 -142.5t-59.5 -210.5h1024q0 120 -60.5 210.5t-165.5 142.5v0zM180 375v260
h-12q46 98 138.5 157.5t205.5 59.5t206 -59.5t138 -157.5h-11v-260q55 0 94 38t39 92q0 36 -18.5 66.5t-49.5 47.5q-44 123 -152.5 200t-245 77t-245.5 -77t-152 -200q-32 -17 -50 -47.5t-18 -66.5q0 -54 38.5 -92t94.5 -38v0v0zM512 248q-100 0 -170.5 69t-70.5 167
q0 96 72.5 165.5t168.5 69.5q99 0 169.5 -69t70.5 -166.5t-70.5 -166.5t-169.5 -69v0zM512 765q-119 0 -203.5 -82.5t-84.5 -199.5t84.5 -199.5t203.5 -82.5t203.5 82.5t84.5 199.5t-84.5 199.5t-203.5 82.5v0zM512 765z" />
    <glyph glyph-name="mima" unicode="&#xe6c9;" 
d="M830 481h-55v171q0 76 -53 129t-129 53h-164q-75 0 -128.5 -53t-53.5 -129v-73q0 -15 11 -25.5t26 -10.5t25.5 10.5t10.5 25.5h3v73q0 44 31 75t75 31h164q44 0 75 -31t31 -75v-171h-503q-76 0 -76 -85v-471h783v472q0 36 -19 60t-54 24zM827 1h-631v395v9h630q1 -4 1 -8
v-396zM511 343q-34 0 -58 -24t-24 -58q0 -43 37 -68v-95q0 -19 13 -32.5t32 -13.5t32.5 13.5t13.5 32.5v95q36 24 36 68q0 34 -24 58t-58 24z" />
    <glyph glyph-name="iconfontlttb" unicode="&#xe635;" 
d="M1023 425q0 -117 -68.5 -216.5t-186 -157.5t-256.5 -58q-115 0 -219 42l-193 -124l30 226q-61 59 -95 133t-34 155q0 117 68.5 216.5t186 157.5t256.5 58t256.5 -58t186 -157.5t68.5 -216.5zM159 2l129 90l20 2q43 -16 66 -24t62 -16.5t72 -8.5q93 0 179 31t147.5 83
t98 121.5t36.5 144t-36.5 144t-98 121t-147.5 82.5t-179.5 31t-178 -31t-144.5 -82.5t-95.5 -121t-35.5 -144.5q0 -145 106 -241l22 -37zM228 445q0 -25 17.5 -42.5t42.5 -17.5t42.5 17.5t17.5 42.5t-17.5 42.5t-42.5 17.5t-42.5 -17.5t-17.5 -42.5v0zM466 445
q0 -25 17.5 -42.5t42.5 -17.5t43 17.5t18 42.5t-18 42.5t-43 17.5t-42.5 -17.5t-17.5 -42.5v0zM704 445q0 -25 18 -42.5t42.5 -17.5t42.5 17.5t18 42.5t-18 42.5t-42.5 17.5t-42.5 -17.5t-18 -42.5v0z" />
    <glyph glyph-name="biaoqing" unicode="&#xe665;" 
d="M512 895q-104 0 -199 -40.5t-163.5 -109t-109 -163t-40.5 -198.5t40.5 -198.5t109 -163t163.5 -109t199 -40.5t198.5 40.5t163 109t109 163t40.5 198.5t-40.5 198.5t-109 163t-163 109t-198.5 40.5v0zM696 665q38 0 65 -26.5t27 -65t-27 -65t-65 -26.5t-65 26.5t-27 65
t27 65t65 26.5v0zM327 665q38 0 65 -26.5t27 -65t-27 -65t-65 -26.5t-65 26.5t-27 65t27 65t65 26.5v0zM512 30q-138 0 -239.5 93t-113.5 229h705q-12 -136 -113 -229t-239 -93v0z" />
    <glyph glyph-name="dilidingwei" unicode="&#xe676;" 
d="M570 499q20 21 20 50t-20.5 50t-50 21t-50 -21t-20.5 -50t20.5 -50t50 -21t50.5 21v0zM570 499zM514 72h1q21 0 35 17q37 49 72.5 100t79.5 121.5t71 135t27 106.5q0 116 -83.5 198t-202 82t-202 -82t-83.5 -198q0 -42 27 -106.5t71 -135t79.5 -121.5t73.5 -100
q13 -17 34 -17v0zM514 781q97 0 165.5 -67t68.5 -162q0 -51 -57 -157t-157 -240q-7 -10 -19.5 -10t-19.5 10q-100 134 -157 240t-57 157q0 95 68.5 162t164.5 67v0zM514 781zM868 117q-21 21 -55 32q-33 12 -73 12h-3h-4q-9 -1 -15.5 -7.5t-6.5 -16.5q-1 -10 6 -17.5
t17 -7.5l29 -1h2q45 -6 68 -29q10 -10 10 -18q0 -5 -6.5 -11.5t-26.5 -16.5t-51 -18q-96 -24 -246 -24t-248 24q-31 8 -51.5 18t-27.5 17t-7 12q0 17 14 25q19 13 63 17h4l29 2q10 0 17 7.5t6 18.5q-1 9 -8 16t-18 7l-4 -1q-80 -1 -117 -26q-35 -23 -35 -66q0 -35 39 -61
q30 -19 84 -33q103 -26 259.5 -26t258.5 26q53 13 83 33q38 25 38 60q0 29 -24 53v0zM868 117z" />
    <glyph glyph-name="bianji" unicode="&#xe667;" 
d="M319 329q-1 -2 -1 -3l-52 -195q-5 -19 8 -33q10 -9 23 -9q4 0 8 1l188 53v-0.5t1 -0.5q3 0 5 3l502 518q23 24 23 60q0 41 -29 71l-48 49q-29 30 -68 30q-34 0 -58 -24l-501 -518q0 -1 -0.5 -1.5zM952 714l-50 -51l-81 85l49 50q6 6 15.5 5.5t16.5 -7.5l48 -49
q7 -8 7 -19q0 -8 -5 -14zM408 321l362 374l81 -85l-361 -374l-82 85v0v0zM342 169l27 99l69 -72l-96 -27v0v0zM984 509q-15 0 -25 -10.5t-10 -25.5v-483q0 -19 -13 -32.5t-31 -13.5h-791q-19 0 -32 13.5t-13 32.5v788q0 20 13 33t32 13h509q14 0 24.5 10.5t10.5 25.5
t-10.5 25.5t-24.5 10.5h-515q-44 0 -76 -33t-32 -79v-800q0 -46 32 -79t76 -33h802q45 0 76.5 33t31.5 79v489q0 15 -10 25.5t-24 10.5v0z" />
    <glyph glyph-name="shouyeicon05" unicode="&#xe66d;" 
d="M672 500q41 -8 80 16q29 19 46 49q29 52 12 108q-8 28 -29 56q4 5 52 67q1 2 8 10t8 10q2 3 2 9.5t-1 8.5q-5 2 -33 -4q-33 -8 -85 -23q-2 1 -33.5 10t-45.5 7q-24 -2 -49 -12q-41 -18 -67.5 -59.5t-11.5 -90.5q14 -51 58.5 -101t88.5 -61zM929 134q-33 -8 -71 -33
q-27 41 -54 85q-10 12 -35 29t-46 27q0 3 3 7q6 15 12 19q3 2 18 4q15 1 24 4q31 6 58 23q50 29 78 62q16 19 26 33q10 17 21 44q10 26 16 73q5 23 4 70q0 18 -2 48q-1 14 -3.5 39t-2.5 28q-5 22 -20.5 36t-42.5 14q-5 -1 -15 -5q-16 -6 -27 -20q-11 -16 -11.5 -38t5 -41.5
t9.5 -44t1 -42.5q-6 -27 -11 -39q-15 -34 -43 -56q-16 -13 -39 -21q-42 -16 -86 -10q-35 6 -84 37q-15 9 -63 43t-78 49q-47 24 -74 19q-43 -7 -74 -19q-39 -14 -63 -32q-22 -17 -27 -40q-5 -21 4.5 -40.5t30.5 -24.5q18 -6 48 6q43 17 70 20q16 0 37 -5q15 -4 45 -11.5
t45 -10.5q7 -68 -26 -133q-5 -11 -11.5 -21t-11.5 -17t-14 -17.5t-13.5 -16t-17 -19t-17.5 -18.5q-53 -60 -78 -67q-31 -6 -60 16q-25 20 -37 49t-22 77q-4 25 -4 42q-31 18 -93 53.5t-94 52.5q-5 -20 -8 -37q-6 -42 7 -66t52 -41q27 -12 43 -14l-1 -48q0 -39 2 -54
q7 -50 15.5 -79t26.5 -52q7 -8 32 -27q30 -25 59 -38q30 -12 61 -12q33 1 69 14q76 27 146 69q26 15 45 29q4 2 9.5 6.5t7.5 5.5t14.5 2.5t19.5 1.5q92 8 126 -25q29 -25 45 -74l7 -28q148 59 227 88q9 56 -13 89t-76 23zM469 392l-100 18q-25 -15 -49 -22q-32 -7 -49 -2
t-39 23l-15 18q-17 -46 -26 -70q41 -19 122.5 -57t122.5 -57q5 25 16.5 74.5t16.5 74.5v0z" />
    <glyph glyph-name="weixin" unicode="&#xe66e;" 
d="M580 384q-9 0 -16.5 -7.5t-7.5 -17.5q0 -8 7.5 -14.5t16.5 -6.5q12 0 20.5 6.5t8.5 14.5q0 10 -8.5 17.5t-20.5 7.5v0v0v0zM503 496q14 0 22 8t8 21q0 14 -8 21.5t-22 7.5t-24 -8t-10 -21t10 -21t24 -8v0v0v0zM512 894q-104 0 -198.5 -40.5t-163 -109t-109 -163
t-40.5 -198.5t40.5 -198.5t109 -163t163 -109t198.5 -40.5t198.5 40.5t163 109t109 163t40.5 198.5t-40.5 198.5t-109 163t-163 109t-198.5 40.5v0v0v0zM415 254q-35 0 -82 13l-84 -43l24 72q-94 66 -94 158q0 85 69 142.5t167 57.5q87 0 155 -46.5t83 -118.5q-13 3 -23 3
q-84 0 -142 -55t-58 -133q0 -23 6 -50h-21v0v0v0zM763 172l16 -60l-63 36q-5 -1 -22 -5t-28 -6t-22 -2q-83 0 -141 50.5t-58 121.5t58 121t141 50q81 0 141 -50.5t60 -120.5q0 -75 -82 -135v0v0v0zM338 554q-14 0 -25 -8t-11 -21t11 -21t25 -8q13 0 21.5 8t8.5 21t-8.5 21
t-21.5 8v0v0v0zM710 384q-9 0 -16 -7.5t-7 -17.5q0 -8 7 -14.5t16 -6.5q12 0 20.5 6.5t8.5 14.5q0 10 -8 17.5t-21 7.5v0v0v0zM710 384z" />
    <glyph glyph-name="11" unicode="&#xe66f;" 
d="M506 827q-91 0 -174 -35t-143 -95t-95.5 -143t-35.5 -174t35.5 -174t95.5 -143t143 -95.5t174 -35.5t174 35.5t143 95.5t95.5 143t35.5 174t-35.5 174t-95.5 143t-143 95t-174 35zM674.5 550q25.5 0 43.5 -18t18 -43.5t-18 -43.5t-43.5 -18t-43.5 18t-18 43.5t18 43.5
t43.5 18zM337.5 550q25.5 0 43.5 -18t18 -43.5t-18 -43.5t-43.5 -18t-43.5 18t-18 43.5t18 43.5t43.5 18zM723 134q-14 -9 -25 -5.5t-18 9.5t-7 8v0q-15 22 -44 45q-55 43 -120 43q-66 0 -123 -44q-29 -22 -46 -45h1l-3 -3t-7 -6t-10.5 -6t-14 -1.5t-16.5 5.5
q-12 9 -14.5 21.5t1.5 21.5l4 8q4 6 11 15t29 29t46.5 35.5t62.5 28t78.5 12.5t78.5 -12.5t62 -28t45 -36t28 -29.5t11 -14q1 -2 4 -9t1 -20t-15 -22z" />
    <glyph glyph-name="shangchuantupian" unicode="&#xe670;" horiz-adv-x="1280" 
d="M788 10v0h-650q-40 0 -40 39v709q0 40 40 40h965q39 0 39 -40v-354v0v0q0 -40 40 -40q38 0 48.5 9t10.5 31v0v0v394q0 40 -24.5 69t-62.5 29h-1059q-39 0 -67 -29.5t-28 -68.5v-788q0 -40 28 -69.5t67 -29.5h693v0q39 0 39 40q0 37 -9 48t-30 11v0v0zM788 148
q15 30 50.5 54t67.5 24h39v56q0 39 22.5 73t56.5 49v0v0l-79 197l-256 -296l-315 99l-236 -256h650v8v-8zM1103 -128h-40q-7 0 -13 6t-6 14v354q0 8 6 14t13 6h40q7 0 13 -6t6 -14v-354q0 -8 -6 -14t-13 -6zM1280 89v-40q0 -8 -5.5 -13.5t-14.5 -5.5h-354q-8 0 -14 6t-6 13
v40q0 7 6 13t14 6h354q9 0 14.5 -6t5.5 -13zM315 601zM236 600.5q0 32.5 23 55.5t56 23t56 -23t23 -55.5t-23 -55.5t-56 -23t-56 23t-23 55.5z" />
    <glyph glyph-name="quxiao" unicode="&#xe672;" horiz-adv-x="1025" 
d="M150 746q-98 -98 -133 -230t0 -264t133 -230q74 -74 169.5 -112t192.5 -38t192.5 38t169.5 112q98 98 133 230t0 264t-133 230t-230 133t-264 0t-230 -133zM784 595l-212 -211l212 -211l-61 -61l-211 212l-211 -212l-61 61l212 211l-212 211l61 61l211 -212l211 212z" />
    <glyph glyph-name="biaoqing1" unicode="&#xe673;" 
d="M512 839q-93 0 -177 -36t-145 -97t-97 -145t-36 -177t36 -177t97 -145t145 -97t177 -36t177 36t145 97t97 145t36 177t-36 177t-97 145t-145 97t-177 36zM333.5 564q28.5 0 48.5 -20t20 -48.5t-20 -48.5t-48.5 -20t-48.5 20t-20 48.5t20 48.5t48.5 20zM512 139
q-50 0 -96.5 19.5t-76 47.5t-47.5 57t-18 48h238h238q0 -19 -18 -48t-47.5 -57t-76 -47.5t-96.5 -19.5zM690.5 427q-28.5 0 -48.5 20t-20 48.5t20 48.5t48.5 20t48.5 -20t20 -48.5t-20 -48.5t-48.5 -20z" />
    <glyph glyph-name="e61a" unicode="&#xe684;" 
d="M870 625h-124l-66 105h-336l-66 -105h-124q-28 0 -58 -23t-30 -60v-420q0 -34 27 -59q25 -25 55 -25h724q30 0 57 25q29 26 29 58v420q0 27 -24.5 55.5t-63.5 28.5zM131 542q0 8 9 13.5t14 6.5h161l66 105h264l48 -77l16 -28h161q16 0 23 -21v-420q0 -5 -8 -12.5
t-13 -7.5h-723q-5 0 -11.5 7t-6.5 14v420zM512 169q82 0 140 55.5t58 133.5t-58 133t-140 55t-140 -55t-58 -133t58 -133.5t140 -55.5zM379 358q0 52 39 89t94 37t94 -37t39 -89t-39 -89t-94 -37t-94 37t-39 89z" />
    <glyph glyph-name="xinzeng" unicode="&#xe687;" 
d="M1024 311h-439v-439h-73v439h-439v73h439v439h73v-439h439v-73z" />
    <glyph glyph-name="jubao" unicode="&#xe689;" 
d="M922 -51h-820q-21 0 -39.5 10.5t-28.5 27.5q-9 19 -9 40.5t9 40.5l410 709q9 18 28 28t40 10q22 0 40 -11t28 -27l410 -709q9 -19 9 -40.5t-9 -40.5q-19 -38 -68 -38zM512 755q-9 0 -13 -8l-409 -709v0q-2 -3 -2 -6.5t1 -6t1 -4.5q0 -8 12 -8h820q12 0 12 8q0 2 1 4.5
t1 6t-2 6.5l-409 709q-4 8 -13 8zM512 252q-14 0 -24 9.5t-10 24.5v239q0 13 9.5 23.5t24.5 10.5q16 0 25 -9t9 -25v-243q-3 -14 -12.5 -22t-21.5 -8zM512 124q-14 0 -24 9.5t-10 24.5v38q0 14 9.5 24t24.5 10q16 0 25 -9t9 -25v-38q-7 -34 -34 -34z" />
    <glyph glyph-name="biaoqing11" unicode="&#xe600;" 
d="M512 868q-98 0 -188 -38t-155 -103t-103 -155t-38 -188.5t38 -188t103 -154.5t155 -103t188.5 -38t188 38t154.5 103t103 154.5t38 188t-38 188.5t-103 155t-154.5 103t-188.5 38v0zM682 628q34 0 58 -24t24 -58.5t-24 -58.5t-58 -24t-58 24t-24 58t24 58.5t58 24.5v0z
M348 628q34 0 58 -24t24 -58.5t-24 -58.5t-58 -24t-58 24t-24 58.5t24 58.5t58 24v0zM532 46q-114 -4 -197 75.5t-102 216.5q36 -72 85.5 -121.5t102 -71.5t109 -20.5t107 27t95.5 77t75 124.5q3 -79 -34.5 -149t-102 -113t-138.5 -45v0z" />
    <glyph glyph-name="eye" unicode="&#xe60e;" 
d="M97 353q-8 0 -15 4q-12 6 -15.5 19t2.5 25l12.5 20t30 42.5t47.5 58.5t64.5 61t81 57t96 40t111 16t111 -16t96.5 -40t81.5 -57t64.5 -60.5t48 -58t30.5 -43t11.5 -20.5q7 -12 3.5 -24.5t-15 -19t-24.5 -3t-19 15.5q-4 5 -10 15t-26 37t-42.5 52t-57.5 55t-71.5 51.5
t-84.5 36.5t-96.5 15t-96.5 -15t-84.5 -36.5t-71 -51.5t-57 -55t-42 -51.5t-26 -37t-8.5 -15.5q-10 -17 -29 -17zM511.5 75q-56.5 0 -111 16t-96 39.5t-81 56.5t-64.5 61t-47.5 58.5t-30 42.5t-12.5 21q-6 11 -2.5 24t15.5 19.5t24.5 2.5t18.5 -15v0q3 -6 9.5 -16t26.5 -37
t42 -52t57 -55t71 -51.5t84 -36t96.5 -14.5t96.5 14.5t84.5 36t71.5 51.5t57.5 55t42.5 52t26.5 37t9.5 16q6 11 19 15t24.5 -2.5t15 -19.5t-3.5 -24q-4 -9 -11.5 -21t-30.5 -42.5t-48 -58.5t-64.5 -61t-81.5 -56.5t-96.5 -39.5t-111 -16zM512.5 215q-70.5 0 -120.5 50
t-50 120.5t50 120t120.5 49.5t120.5 -49.5t50 -120t-50 -120.5t-120.5 -50zM512.5 491q-43.5 0 -75 -31t-31.5 -75t31.5 -75t75 -31t75 31t31.5 75t-31.5 75t-75 31z" />
    <glyph glyph-name="renzheng1" unicode="&#xe68e;" 
d="M863 668h-4.5h-3.5h-9q-2 0 -11 1q-97 5 -176 41t-124 96v0l-1 1v-1q-9 9 -21.5 9t-21.5 -9v1v-1v0q-46 -60 -125 -96t-176 -41q-8 -1 -11 -1h-9h-3.5h-3.5q-12 0 -21 -8.5t-9 -20.5v-389q6 -56 38.5 -108t77 -88.5t95.5 -64.5t95 -41.5t73.5 -13.5t73.5 13.5t94.5 41.5
t95 64.5t76.5 88.5t38 108h2v389q0 12 -8.5 20.5t-20.5 8.5zM698 461l-158 -290l-1 -1t-1 -2q-1 -2 -2 -2q-3 -5 -8 -7v0q-1 -1 -5 -2l-1 -0.5l-1 -0.5q-4 -1 -8 -1v0v0q-4 0 -8 1q-1 0 -1.5 0.5t-1.5 0.5q-3 1 -5 2v0q-4 2 -8 7l-2 2q0 1 -1 2l-1 1l-158 290q-6 11 -2.5 24
t15 19t24 2.5t18.5 -15.5l131 -239l130 239q6 12 18.5 15.5t24 -2.5t15.5 -19t-3 -24z" />
    <glyph glyph-name="qita1" unicode="&#xe69d;" 
d="M486 452q0 -19 -13.5 -33t-32.5 -14h-328q-19 0 -33 14t-14 33v327q0 20 14 33.5t33 13.5h328q19 0 32.5 -13.5t13.5 -33.5v-327zM967 452q0 -19 -13.5 -33t-33.5 -14h-327q-19 0 -33 14t-14 33v327q0 20 14 33.5t33 13.5h327q20 0 33.5 -13.5t13.5 -33.5v-327zM486 -18
q0 -20 -13.5 -33.5t-32.5 -13.5h-328q-19 0 -33 13.5t-14 33.5v327q0 19 14 33t33 14h328q19 0 32.5 -14t13.5 -33v-327zM920 356h-327q-19 0 -33 -14t-14 -33v-327q0 -20 14 -33.5t33 -13.5h327q20 0 33.5 13.5t13.5 33.5v327q0 19 -13.5 33t-33.5 14zM934 8
q0 -17 -11.5 -28.5t-28.5 -11.5h-275q-16 0 -27.5 11.5t-11.5 28.5v275q0 16 11.5 27.5t27.5 11.5h275q17 0 28.5 -11.5t11.5 -27.5v-275z" />
    <glyph glyph-name="dianhua-copy-copy" unicode="&#xe69e;" 
d="M611 558q28 35 44 83q15 49 15 103q43 -16 56.5 -30.5t13.5 -40.5q0 -45 -22 -88t-45 -43q-8 0 -24 4q-13 3 -38 12zM174 72q-67 85 -96 158q-29 75 -29 158q0 91 35 177q35 85 101 150q65 65 150 100q84 36 176 36q93 0 177 -35q83 -35 149 -101q65 -65 100.5 -150
t35.5 -176t-35.5 -176.5t-100.5 -150.5t-150 -100.5t-176 -35.5q-111 0 -178 36t-67 94q0 12 5 24q4 12 15 25q10 -9 18 -14q8 -4 14 -4q10 0 32 17q21 18 41 45q17 23 30 53q12 29 12 37q0 5 -14 22q-15 17 -15 34q0 24 13 62q14 40 39 91q30 60 48 84t38 30q4 2 14 3
q34 4 50 29q16 26 27 66t11 67q0 23 -7 31t-30 8q-35 0 -60 -5t-38 -15q-16 -11 -51 -56q-35 -44 -71 -100q-67 -105 -109 -221q-42 -118 -42 -177q0 -11 5 -24t18 -34q-18 -22 -26.5 -43.5t-8.5 -43.5q0 -73 79 -119q79 -47 208 -47q99 0 193 39t165 110q72 71 111 165
q38 93 39 194q0 100 -39 192q-39 93 -111 165q-71 72 -164 111q-92 38 -194 38q-101 0 -193.5 -38.5t-164.5 -110.5q-71 -71 -109 -164q-39 -94 -39 -194q0 -88 26 -162q27 -76 79 -134q11 -12 21.5 -18.5t19.5 -6.5q2 0 9 1q2 1 14 4v0zM344 70q42 31 71 71q28 40 40 89
q30 -21 41 -32q10 -13 10 -26q0 -35 -35 -81q-35 -47 -67 -47q-9 0 -25 6q-15 7 -35 20z" />
    <glyph glyph-name="icon3fuzhi" unicode="&#xe60c;" 
d="M913 149q-18 -12 -150 -90t-174 -102q-34 -19 -52 -20t-68 14q-101 31 -149 54q-57 26 -98 0l-51 -31l-107 235q88 41 141 61q42 15 71 16.5t44.5 -4.5t45.5 -24l86 -61q4 -4 13.5 -10t42 -17t70.5 -11q43 0 64 -7.5t21 -29.5q0 -9 -7 -16.5t-16 -11t-19.5 -6t-16 -3
t-7.5 -0.5h-122q-24 0 -57 8t-53 15l-21 8l7.5 -7.5t19.5 -16.5t29.5 -21t35 -16.5t39.5 -7.5h123q21 1 42.5 7t40.5 24t19 44q0 18 -4.5 31.5t-16.5 21t-23 12.5t-33 7t-35.5 2.5t-42.5 0.5q-7 0 -19 2q7 3 11 6q23 12 60 35q32 20 53 26.5t38.5 1.5t32.5 -26q27 28 72 28
q20 0 33 -12.5t9 -32.5q81 48 114 5q28 -36 -36 -81zM541 502h84v-70h-84v70zM541 700h84v-63h-84v63zM541 603h84v-67h-84v67zM709 830h-397q-24 0 -41 -17t-17 -41v-396q0 -24 17 -41t41 -17h397q24 0 41 17t17 41v396q0 24 -17 41t-41 17zM430 561v-175h-36v162
q-25 -60 -51 -93q-5 14 -18 35q38 44 64 118h-59v35h64v54q-29 -5 -50 -8q-1 12 -10 30q84 13 128 32l22 -30q-27 -10 -54 -16v-62h53v-35h-53v-6q23 -24 55 -68l-22 -30q-11 22 -33 57zM700 398h-235v34h39v303h159v-303h37v-34z" />
    <glyph glyph-name="renzheng2" unicode="&#xe6a1;" horiz-adv-x="1040" 
d="M870 820q-11 18 -16 18h-677q-2 0 -3.5 -0.5t-3 -1.5t-2.5 -2t-2.5 -3t-2 -3l-2 -4t-1.5 -4l-160 -285q0 -7 4.5 -16t8.5 -14l5 -5q467 -554 475 -563q7 -5 14 -4.5t11 4.5l496 563q10 19 10 35zM803 572h-1l-297 -461l-279 462l-72 1v89l217 -1l177 -312l205 312h114
v-90h-64z" />
    <glyph glyph-name="quxiao1" unicode="&#xe6a3;" 
d="M877 722l-45 46l-319 -318l-321 318l-45 -46l321 -317l-321 -319l45 -45l321 319l319 -316l45 45l-319 316z" />
    <glyph glyph-name="chenggong" unicode="&#xe6a6;" 
d="M508 832q-122 0 -225 -60t-162.5 -163t-59.5 -225q0 -91 35.5 -174t95.5 -143t143 -95.5t174 -35.5t174 35.5t143 95.5t95.5 143t35.5 174t-35.5 174t-95.5 143t-143 95.5t-175 35.5v0v0zM794 505q-273 -289 -307 -324q-21 -17 -39 -16t-30 13l-195 178q-13 14 -13 34
t13.5 34.5t32.5 14.5t32 -15l162 -145q0 1 70 74t139.5 146.5l69.5 73.5q14 14 33 14t32.5 -14t13.5 -34t-14 -34v0v0zM794 505z" />
    <glyph glyph-name="iconfontpaimai" unicode="&#xe63d;" 
d="M974 89l-305 309l144 146q18 19 18 44.5t-18 44.5l-225 228q-18 18 -43.5 18t-43.5 -18l-433 -439q-18 -19 -18 -45t18 -44l225 -228q18 -18 43.5 -18t43.5 18l144 146l305 -309q18 -18 43.5 -18t43.5 18l58 59q18 18 18 44t-18 44v0v0zM441 -57h-381q-12 0 -20 -8.5
t-8 -20t8 -20t20 -8.5h381q11 0 19.5 8.5t8.5 20t-8.5 20t-19.5 8.5v0v0zM441 -57z" />
    <glyph glyph-name="qita2" unicode="&#xe6a7;" 
d="M130 791q-17 0 -28.5 -12t-11.5 -28v-292q0 -16 11.5 -28t28.5 -12h292q16 0 27.5 12t11.5 28v292q0 16 -11.5 28t-27.5 12h-292v0v0zM130 791q-17 0 -28.5 -12t-11.5 -28v-292q0 -16 11.5 -28t28.5 -12h292q16 0 27.5 12t11.5 28v292q0 16 -11.5 28t-27.5 12h-292v0v0z
M528 618q-12 -12 -12 -28.5t12 -27.5l168 -169q12 -12 28.5 -12t27.5 12l169 169q11 11 11 27.5t-11 28.5l-169 168q-11 12 -27.5 12t-28.5 -12l-168 -168v0v0zM528 618q-12 -12 -12 -28.5t12 -27.5l168 -169q12 -12 28.5 -12t27.5 12l169 169q11 11 11 27.5t-11 28.5
l-169 168q-11 12 -27.5 12t-28.5 -12l-168 -168v0v0zM584 339q-16 0 -28 -11.5t-12 -27.5v-292q0 -17 12 -28.5t28 -11.5h292q16 0 28 11.5t12 28.5v292q0 16 -12 27.5t-28 11.5h-292v0v0zM584 339q-16 0 -28 -11.5t-12 -27.5v-292q0 -17 12 -28.5t28 -11.5h292
q16 0 28 11.5t12 28.5v292q0 16 -12 27.5t-28 11.5h-292v0v0zM130 339q-17 0 -28.5 -11.5t-11.5 -27.5v-292q0 -17 11.5 -28.5t28.5 -11.5h292q16 0 27.5 11.5t11.5 28.5v292q0 16 -11.5 27.5t-27.5 11.5h-292v0v0zM130 339q-17 0 -28.5 -11.5t-11.5 -27.5v-292
q0 -17 11.5 -28.5t28.5 -11.5h292q16 0 27.5 11.5t11.5 28.5v292q0 16 -11.5 27.5t-27.5 11.5h-292v0v0zM130 339z" />
    <glyph glyph-name="shanchang" unicode="&#xe6a8;" 
d="M504 -128q-102 0 -195 40t-160.5 107.5t-107.5 161t-40 195.5t40 195t107.5 160.5t160.5 108t195 40.5t195.5 -40.5t161 -108t107.5 -160.5t40 -195t-40 -195.5t-107.5 -161t-161 -107.5t-195.5 -40v0zM504 751q-102 0 -188.5 -50t-136.5 -136.5t-50 -189t50 -188.5
t136.5 -136t189 -50t189 50t136 136t49.5 188.5t-49.5 189t-136 136.5t-189.5 50v0zM715 100l-197 107l-193 -125l31 233l-166 144l220 40l85 207l103 -202l220 -18l-157 -162l54 -224v0z" />
    <glyph glyph-name="weibiaoti104" unicode="&#xe6ec;" 
d="M958 471.5q-5 5.5 -14 5.5h-258q54 0 92.5 38.5t38.5 93t-38.5 93t-92.5 38.5q-63 0 -99 -45l-75 -97l-75 97q-36 45 -99 45q-54 0 -92.5 -38.5t-38.5 -93t38.5 -93t92.5 -38.5h-258q-8 0 -13.5 -5.5t-5.5 -13.5v-188q0 -8 5.5 -13t13.5 -5h56v-245q0 -23 16.5 -39.5
t40.5 -16.5h639q23 0 39.5 16.5t16.5 39.5v245h56q8 0 13.5 5t5.5 13v188q0 8 -5 13.5zM645 647q16 18 41 18q23 0 39.5 -16.5t16.5 -40t-16.5 -40t-39.5 -16.5h-114zM338 552q-23 0 -39.5 16.5t-16.5 40t16.5 40t39.5 16.5q25 0 41 -18l74 -95h-115zM606 364v-275v-32
q0 -15 -10.5 -23t-27.5 -8h-112q-17 0 -27.5 8t-10.5 23v32v275v113h188v-113z" />
    <glyph glyph-name="xinzeng1" unicode="&#xe6b0;" 
d="M947 459h-359v359q0 30 -21 51t-51 21h-6q-30 0 -51 -21t-21 -51v-359h-359q-30 0 -51 -21t-21 -51v-6q0 -30 21 -51t51 -21h359v-359q0 -30 21 -51t51 -21h6q30 0 51 21t21 51v359h359q30 0 51 21t21 51v6q0 30 -21 51t-51 21z" />
    <glyph glyph-name="emizhifeiji" unicode="&#xe6b2;" horiz-adv-x="1171" 
d="M502 -128l142 194l-142 41v-235v0zM0 329l404 -122l497 422l-385 -455l432 -133l222 855l-1170 -567v0z" />
    <glyph glyph-name="arrow" unicode="&#xe602;" horiz-adv-x="1152" 
d="M625 896l-81 -81l432 -431l-432 -431l81 -81l511 512z" />
    <glyph glyph-name="liebiao" unicode="&#xe6ed;" 
d="M220 310h586q15 0 26 10.5t11 25.5t-11 26t-26 11h-586q-15 0 -25.5 -11t-10.5 -26t10.5 -25.5t25.5 -10.5v0zM220 90h586q15 0 26 11t11 26t-11 25.5t-26 10.5h-586q-15 0 -25.5 -10.5t-10.5 -25.5t10.5 -26t25.5 -11v0zM439 750h183q15 0 25.5 10.5t10.5 25.5t-10.5 26
t-25.5 11h-183q-15 0 -26 -11t-11 -26t11 -25.5t26 -10.5v0zM895 823h-54q-15 0 -25.5 -11t-10.5 -26t10.5 -25.5t25.5 -10.5h54q6 0 12.5 -10.5t6.5 -26.5v-110h-804v110q0 15 10.5 26t25.5 11h73q16 0 26.5 10.5t10.5 25.5t-10.5 26t-26.5 11h-73q-46 0 -77.5 -32
t-31.5 -78v-731q0 -46 32 -78t77 -32h732q45 0 77 32t32 78v731q0 46 -27 78t-65 32v0zM914 -18q0 -15 -10.5 -26t-25.5 -11h-732q-15 0 -25.5 11t-10.5 26v548h804v-548v0zM731 713q16 0 26.5 11t10.5 26v109q0 16 -10.5 26.5t-26 10.5t-26 -10.5t-10.5 -26.5v-109
q0 -15 10.5 -26t25.5 -11v0zM329 713q15 0 26 11t11 26v109q0 16 -11 26.5t-26 10.5t-25.5 -10.5t-10.5 -26.5v-109q0 -15 10.5 -26t25.5 -11v0zM329 713z" />
    <glyph glyph-name="kuaidi" unicode="&#xe618;" 
d="M423 274h1l150 -24l57 -143q6 -14 18.5 -22.5t27.5 -8.5q9 0 18 3q19 8 27.5 27t0.5 38l-67 169q-10 27 -38 31l-125 20q-1 38 7 88q-13 10 -24 22q-36 35 -55 75v0v0q-7 15 -1 30.5t21 22.5q7 3 16 3q26 0 36 -23v0q1 -1 2 -3q3 -6 7 -12q7 -11 16 -22q6 29 -5 55
t-34 32q-28 7 -58.5 -10.5t-44.5 -58.5q-21 -60 -25.5 -106.5t2.5 -113.5q12 -62 70 -69zM813 349q16 0 22.5 30.5t0 60.5t-22.5 30q-25 0 -43 -17.5t-18 -42.5t18 -43t43 -18zM495 563q-4 6 -7 12q-1 2 -2 3v1v0q-5 12 -17.5 16.5t-24.5 -1t-16.5 -17.5t0.5 -24
q19 -40 54 -74q73 -73 175 -73v0h14q14 1 22.5 10.5t8 23t-10.5 22t-23 8.5q-5 -1 -11 -1q-75 1 -131 55q-17 18 -31 39zM562 667q-14 -8 -35 -8q-10 0 -32 3q-14 2 -26 6q19 -25 50 -32q36 -8 67.5 11.5t39.5 55.5q8 31 -7 60q-36 -4 -48 -14q-8 -6 -8 -13v-1
q1 -10 3 -24.5t3 -21.5q0 -11 -6 -20q0 -1 -1 -2zM446 691q17 -17 50 -21q21 -3 31 -3q18 0 30 6q4 8 4 16q0 6 -2.5 20.5t-3.5 25.5v1q0 11 11 19q8 6 22 11q16 4 41 6q-3 18 -11 34q-25 47 -78 54q-7 1 -14 1v0q-38 0 -67.5 -25.5t-34.5 -64.5q-1 -6 -1 -13q0 -9 2 -18
q6 -33 21 -49zM986 156q-47 60 -130 59q-4 11 -8 20q-26 74 -105 107l-29 86q-2 4 -5 7q-1 -15 -11.5 -25.5t-25.5 -11.5h-15v0q-20 0 -39 3q0 -4 1 -8q3 -7 10.5 -10.5t15.5 -0.5v0l38 14l89 -261q24 26 58 37q22 7 44 7q36 0 67 -17t50 -47q25 2 -5 41zM836.5 153.5
q-46.5 -15.5 -68.5 -59.5t-6 -90.5t60 -68.5t90.5 -6t68 60t6 90.5t-59.5 68t-90.5 6zM889.5 -3q-18.5 -6 -36 2.5t-23.5 27t2.5 35.5t27 23.5t35.5 -2t23.5 -27t-2 -36t-27 -23.5zM738 62h-254q-26 53 -32 119q12 3 12 15v43q0 7 -5 11.5t-11 4.5h-324q-7 0 -11.5 -4.5
t-4.5 -11.5v-43q0 -7 4.5 -11.5t11.5 -4.5h2q-44 -108 -44 -166h68q-9 46 12 88q25 52 80 70q21 7 44 7q44 0 80.5 -25.5t50.5 -67.5q12 -35 4 -72h28h66h224q-5 24 -1 48zM247.5 153.5q-46.5 -15.5 -68 -59.5t-5.5 -90.5t59.5 -68.5t90 -6t68.5 60t6 90.5t-60 68t-90.5 6z
M301 -3q-18 -6 -35.5 2.5t-24 27t2.5 35.5t27 23.5t35.5 -2t23.5 -27t-2.5 -36t-26.5 -23.5zM319 298v247q0 9 -6.5 15t-14.5 6h-251q-9 0 -15 -6t-6 -15v-247q0 -9 6 -15.5t15 -6.5h251q8 0 14.5 6.5t6.5 15.5zM231 462l-74 -159q-2 -3 -6 -3h-2q-2 1 -3.5 2.5t-0.5 4.5
l27 111l-56 -14h-1q-3 0 -5 1q-2 2 -1 5l27 114q1 2 2.5 3t3.5 1h45q3 0 4.5 -1.5t1.5 -4.5v-2l-24 -64l55 14h1q3 0 5 -2q2 -3 1 -6z" />
    <glyph glyph-name="kefu1" unicode="&#xe6b5;" 
d="M513.5 706q-129.5 0 -221 -91.5t-91.5 -220.5q0 -127 88 -218q40 -35 81 -57q27 -14 53 -24q44 -14 90 -14q130 0 221.5 91.5t91.5 221t-91.5 221t-221 91.5zM513 128q-110 0 -187.5 78t-77.5 188t77.5 187.5t187.5 77.5t188 -77.5t78 -187.5t-78 -188t-188 -78zM343 331
q36 -31 74.5 -47.5t70.5 -18.5t63 3t54.5 15.5t41.5 21t27.5 18.5l9.5 8q-1 -3 -1 -9t-3.5 -22t-9.5 -30.5t-18.5 -32.5t-30 -30.5t-45.5 -21.5t-62.5 -9t-63 8.5t-45.5 22.5t-30 30t-18.5 32.5t-9 30.5t-4.5 22v9zM513.5 803q-142.5 0 -253.5 -88t-144 -223q-5 -1 -12 -2.5
t-26 -10.5t-33 -22t-25 -37.5t-9.5 -55.5t15 -54.5t29.5 -35t35.5 -18.5t29 -8.5t12.5 -1.5q4 -1 7.5 -0.5t14 3t12.5 2.5q-28 68 -28 143q0 102 50.5 188t136.5 136.5t188 50.5t188.5 -50.5t136.5 -136.5t50 -188q0 -123 -71 -220.5t-184 -135.5q-5 -1 -9.5 -1t-7.5 1l-3 1
q-25 5 -56 -4q-11 -3 -16.5 -13.5t-5.5 -21.5q2 -29 26 -33q56 -9 69 17q1 1 3 5.5t3 7t3.5 5.5t5.5 4q86 29 151.5 92.5t98.5 147.5l12.5 2.5t28 9.5t36 20t28.5 35t14 53t-9 54t-25.5 36.5t-31 21.5t-26.5 11l-11 3q-34 135 -144.5 223t-253 88z" />
    <glyph glyph-name="givepay" unicode="&#xe628;" 
d="M951 412v98h-94q-13 0 -22 9t-9 22v47q0 13 9 22.5t22 9.5h94v62q0 13 -9 22.5t-22 9.5h-816q-13 0 -22 -9.5t-9 -22.5v-62h502q13 0 22 -9.5t9 -22.5v-47q0 -13 -9 -22t-22 -9h-502v-299q0 -13 9 -22t22 -9h453l39 -63h-523q-26 0 -44.5 18.5t-18.5 44.5v534
q0 26 18.5 44.5t44.5 18.5h878q26 0 44.5 -18.5t18.5 -44.5v-126v-47v-149zM669 368v204q0 18 15 33.5t32 14.5q17 -2 32 -16.5t15 -31.5v-172q0 -6 31.5 -17.5t31.5 -14.5q-1 -2 13.5 -2t30.5 -2.5t18 -10.5h10.5t23 -3.5t29 -10t23.5 -21.5t12 -35.5t-11 -55.5t-40 -79
q-2 0 -2 -39.5t1 -78.5l1 -39h-250v110q-81 134 -95 157q-5 9 -8.5 19.5t-3.5 25.5t7 27t28.5 23t55.5 15z" />
    <glyph glyph-name="080juhui-copy" unicode="&#xe6b9;" 
d="M933 -4q-6 12 -20 8q-6 -1 -18 -4t-13 -4l-12 -3q-43 155 -67 238l6 5q12 9 22 26q12 20 19 47q12 44 13 101q1 30 -2 64q-2 30 -4 48q-2 21 -7 51q-5 32 -14 63q-22 78 -61 166q-1 4 -3 7q-8 12 -21.5 17.5t-29.5 1.5q-1 -1 -71 -20q-97 -26 -102 -28q-15 -4 -24 -16
t-10 -26q0 -2 0.5 -6.5l0.5 -4.5q1 -21 5 -46q3 -22 9 -52q7 -38 15 -61q18 -60 46 -125q23 -54 44 -89q26 -44 49 -72q19 -23 37 -37q19 -14 39 -18l11 -2q18 -61 68 -240q-4 -1 -7 -2q-42 -11 -48 -13q-12 -3 -12 -15.5t11 -16.5q1 0 1.5 -0.5l0.5 -0.5h7q1 0 8 2.5
t11 2.5q52 14 110 29q9 3 13 9l2 5v7q-1 0 -1.5 2l-0.5 2v0v0zM563 631q-10 53 -11 64q-2 9 -4 40q-1 10 10 13q2 1 25.5 7t35.5 10q43 11 109 29q4 1 6 1q8 1 11 -7q20 -48 22 -52q19 -50 34 -98q0 -1 0.5 -2.5t0.5 -2.5q-170 -11 -237 -15q-2 12 -2 13v0zM469 781
q-27 8 -171 47q-3 0 -7 1t-5 2h-7l-1 -0.5t-2 -0.5q-25 -4 -36 -28q0 -1 -0.5 -2t-0.5 -2q-19 -43 -34 -87q-18 -49 -27 -84q-14 -53 -21 -128q-1 -15 -3 -52q-2 -43 2 -82q4 -32 11 -58q10 -32 25 -53q11 -16 23 -23l1 -1q-24 -87 -66 -234q0 1 -1 1h-1q-34 9 -36 9
q-8 2 -13.5 -1.5t-7.5 -9.5l-2 -2v-5l2 -2q3 -10 14 -13q20 -5 113 -29l15 -4q8 -2 14.5 3t6.5 13q0 13 -13 17q-8 2 -22.5 5.5t-17.5 4.5q-4 1 -18 5q6 21 30 106.5t36 131.5q8 1 9 2q19 4 38 18t37 37q36 44 66 102q26 50 51.5 118.5t34.5 112.5q15 75 17 114q1 10 0 15
q-6 29 -33 36v0v0zM469 736l-2 -30q-4 -29 -12 -70q0 -1 -0.5 -2t-0.5 -2q-185 12 -236 16q1 0 1.5 3t1.5 4q21 65 48 129l2 4q4 11 15 8q2 -1 5 -1.5t6 -1.5t5 -1q154 -42 157 -43q5 -1 8 -4q3 -4 2 -9v0zM469 736z" />
    <glyph glyph-name="jieshu" unicode="&#xe6bc;" horiz-adv-x="1025" 
d="M512 -128q-104 0 -199 40.5t-163.5 109t-109 163.5t-40.5 199t40.5 199t109 163.5t163.5 109t199 40.5t199 -40.5t163.5 -109t109 -163.5t40.5 -199t-40.5 -199t-109 -163.5t-163.5 -109t-199 -40.5zM512 794q-111 0 -205.5 -55t-149.5 -149.5t-55 -205.5t55 -205.5
t149.5 -149.5t205.5 -55t205.5 55t149.5 149.5t55 205.5t-55 205.5t-149.5 149.5t-205.5 55zM358 538h308v-308h-308v308z" />
    <glyph glyph-name="zhifu2" unicode="&#xe6b8;" 
d="M663 622v150q-5 22 -22.5 30t-36 -1t-24.5 -29v-150h-30v183q-15 33 -42 33t-42 -33v-183h-30v152q-14 29 -40.5 31t-42.5 -31v-152h-30v117q-12 29 -39.5 31.5t-43.5 -31.5v-117h-144v-428h148q4 -110 79.5 -187t180.5 -77t180.5 77t78.5 187h134v428h-234zM869 217
h-110v199q-7 36 -22.5 53.5t-33 4.5t-27.5 -58v-199h-556v380h749v-380zM415 513l38 -72h1v-1h-47v-16h47v-25h-47v-16h47v-96h-36v-17h135v17h-34v96h45v16h-45v25h45v16h-45v5h-1l40 68v0h30v17h-82v-17h22l-40 -68h-7l-36 68h20v17h-82v-17h32v0z" />
    <glyph glyph-name="qiangdanicon-copy" unicode="&#xe617;" 
d="M832 306q-4 33 -32 57t-64 24q-18 0 -33 -5q-5 31 -32 52t-61 21q-12 0 -26 -4v90q0 43 -32.5 74t-79 31t-79 -31t-32.5 -74v-164q-14 5 -22 5q-38 0 -64.5 -25.5t-26.5 -61.5v-87q0 -55 22 -105q24 -56 55 -86q81 -79 195 -79h32q115 0 196 79q41 39 61 86q23 52 23 105
v98zM703 62q-63 -61 -151 -61h-32q-88 0 -151 61q-58 57 -58 146v57v0v30q0 9 8.5 16t19.5 7q21 0 22 -23v-40q0 -13 9 -22.5t22.5 -9.5t22.5 9.5t9 22.5v40v246q0 16 14 29t34 13q21 0 35 -13t14 -29v-221q0 -13 9.5 -22.5t22.5 -9.5t22 9.5t9 22.5v48q0 10 8.5 16.5
t20 6.5t20 -6.5t8.5 -16.5v-89q0 -13 9 -22.5t22.5 -9.5t22.5 9.5t9 22.5v20q1 10 10.5 17t21.5 7q11 0 21 -9t10 -18v-95q-2 -79 -64 -139zM666.5 527q-13.5 0 -22.5 9.5t-9 22.5q0 59 -50 102.5t-112 43.5q-67 0 -114.5 -43t-47.5 -103q0 -13 -9.5 -22.5t-22.5 -9.5
t-22.5 9.5t-9.5 22.5q0 87 67 149q66 60 158.5 60t158.5 -60q67 -62 67 -149q0 -13 -9 -22.5t-22.5 -9.5z" />
    <glyph glyph-name="yewutubiaopei" unicode="&#xe642;" 
d="M956.5 562q-6.5 0 -11 -4.5t-4.5 -11.5v-373q0 -29 -25 -42l-372 -213q-24 -13 -47 0l-373 213q-25 14 -25 42v425q0 28 25 41l372 213q24 14 47 0l335 -191q14 -8 22 6t-6 22l-335 191q-39 23 -79 0l-372 -212q-19 -11 -30 -30t-11 -40v-425q0 -46 41 -70l372 -212
q18 -11 40 -11t39 11l373 213q19 10 30 29t11 40v373q0 6 -5 11t-11.5 5zM481 554q0 13 -8.5 22t-21.5 9h-119q-13 0 -21.5 -9t-8.5 -22v-247h49v238q0 5 4 8.5t10 3.5h54q6 0 10 -3.5t4 -8.5v-238h50v247h-2zM737 412h-35l17 91h-64l-16 -91h-44l-16 91h-64l16 -91h-34v-27
h240v27zM419 519h-55v-145q0 -65 -13 -110t-46 -103h63q22 40 32 74l20 -74h56l-35 130h-29q7 45 7 102v126zM536 355q-12 0 -20 -9.5t-8 -22.5v-132q0 -13 8 -22t20 -9h163q11 0 19.5 9t8.5 22v133q0 13 -8 22t-20 9h-163v0zM662 205q0 -8 -4.5 -13t-11.5 -5h-58
q-7 0 -11.5 5t-4.5 13v105q0 8 4.5 13t11.5 5h58q7 0 11.5 -5t4.5 -13v-105zM584 598v-41h-80v-26h226v26h-80v41h-66z" />
    <glyph glyph-name="shouye-copy" unicode="&#xe609;" 
d="M1009 376l-501 468l-501 -467q-7 -7 -7.5 -17t6.5 -17.5t17 -7.5t17 7l468 436l468 -438q7 -6 17 -6t17 7q7 8 7 18t-8 17v0zM1009 376zM856 366q-10 0 -17 -7t-7 -17v-372h-194v259h-259v-259h-195v372q0 10 -7 17t-17 7t-17 -7t-7 -17v-421h291v259h162v-259h292v421
q0 10 -7.5 17t-17.5 7v0zM856 366zM686 714h146v-130q0 -10 7 -17t17 -7t17.5 7t7.5 17v178h-195q-10 0 -17 -7t-7 -17t7 -17t17 -7v0zM686 714z" />
    <glyph glyph-name="jiaofei" unicode="&#xe61f;" 
d="M866 162q-17 16 -42 16q-34 -1 -77 -27q-61 -38 -91 -52.5t-56 -13.5q-29 0 -71 17q-68 27 -85 36q-10 5 -14 9h2q3 2 12 2q13 0 35.5 -5.5t50.5 -14t39 -10.5q13 -3 26 -3q32 0 54 18t22 45q0 26 -21 46t-57 28q-22 5 -52.5 13.5t-46 12.5t-36.5 7t-42 3q-22 0 -48 -3
q-25 -4 -53 -14t-54 -23t-51.5 -28t-46.5 -29t-37.5 -26t-26 -19l-9.5 -7l-14 -12l126 -188l15 5q14 5 37 10q46 10 85 10q24 1 96.5 -21.5t127.5 -23.5q43 0 86.5 15.5t70 32.5t59 41t46.5 32q56 34 57 83q0 23 -16 38zM803 76q-15 -9 -48.5 -33.5t-57 -39.5t-61 -28.5
t-73.5 -13.5q-46 0 -117 22.5t-108 22.5q-58 0 -120 -17l-87 130q36 27 76 53q103 64 166 73q23 3 43 3q17 0 36 -3t33 -6.5t45 -11.5t53 -14q18 -5 29.5 -12t14.5 -12t3 -10q0 -8 -9 -15t-26 -7q-8 0 -17 2t-36 10.5t-53 14.5t-45 6q-40 1 -52 -28q-3 -7 -3 -16
q-1 -16 12 -28q5 -4 11.5 -8.5t12 -8t17.5 -8.5t19 -8t25 -10.5t27 -11.5q50 -19 87 -19q26 0 54.5 10.5t48 21.5t66.5 40l-11 17l11 -17q33 20 55 20q11 -1 13 -3t3 -9q1 -10 -8.5 -23.5t-28.5 -24.5zM537.5 839q-110.5 0 -204 -54.5t-148 -148t-54.5 -203.5q0 -86 34 -164
l38 17v0q-1 2 -2 5t-1 5q-7 17 -11 33q-13 45 -15 83h2l-1 18q0 100 48.5 184.5t132 134t182 49.5t182 -49.5t132 -134t48.5 -184.5v-10v-8h2q-4 -64 -30 -125q-5 -13 -13 -29l36 -19q49 90 49 193q0 111 -54.5 204.5t-148 148t-204 54.5zM588 507l137 170h-109l-73 -90
l-74 90h-108l137 -170v-11h-70v-46h70v-32h-68v-40h68v-55h90v55h68v40h-68v32h69v46h-69v11v0z" />
    <glyph glyph-name="arrow_right-copy" unicode="&#xe603;" 
d="M272 381q-3 -24 14 -41l431 -431q14 -14 35.5 -14t36.5 15t15.5 36.5t-14.5 35.5l-396 396l396 396q14 15 14 36.5t-15 36.5t-36 15t-36 -15l-431 -430q-14 -15 -14 -36z" />
    <glyph glyph-name="huo" unicode="&#xe61d;" 
d="M792 482q7 -41 2 -73t-19 -55.5t-29 -38.5t-26 -22l-11 -7q7 68 -20.5 148t-74 150.5t-94 131.5t-87.5 110.5t-48 69.5q106 -261 29 -404q-21 -39 -45 -55q11 141 -76 197q-18 11 -32 14q20 -41 21 -75.5t-15 -64.5t-36 -57t-45.5 -68.5t-39.5 -83.5q-9 -26 -9.5 -61
t8.5 -73.5t25.5 -78.5t43.5 -76t61.5 -65.5t81.5 -46.5t100.5 -20.5t120.5 13.5t141 54q48 26 82 60.5t50 71.5t22 77.5t1.5 79.5t-13 75.5t-21 68t-23 54.5t-18 36.5z" />
    <glyph glyph-name="arrow1" unicode="&#xe61b;" horiz-adv-x="1026" 
d="M513 104q-20 0 -33 14l-467 466q-13 14 -13 33t13.5 32.5t32.5 13.5t33 -14l434 -434l434 434q13 14 32 14t32.5 -13.5t13.5 -32.5t-13 -33l-467 -466q-13 -14 -32 -14z" />
    <glyph glyph-name="wentifankui" unicode="&#xe90b;" 
d="M512 885q-113 0 -214 -48.5t-169 -128.5t-98.5 -190.5t-9.5 -226.5q26 -137 142.5 -253.5t253.5 -141.5q116 -22 226.5 9t190.5 98.5t128.5 168.5t48.5 214q0 102 -39.5 194.5t-106.5 159t-159.5 106t-193.5 39.5zM512 -46q-98 0 -185 42.5t-146 111.5t-85.5 164.5
t-7.5 195.5q21 119 122 220t220 122q100 19 195.5 -7.5t164.5 -85.5t111.5 -146t42.5 -185q0 -117 -58 -216.5t-157.5 -157.5t-216.5 -58zM524 705q-77 -2 -122.5 -53.5t-48.5 -141.5q0 -4 3 -7.5t8 -3.5h46q11 0 12 11q3 126 102 126q103 0 103 -103q0 -12 -0.5 -21t-5 -18
t-6 -13.5t-11 -13t-12 -11t-16.5 -13t-17 -13.5q-38 -31 -54 -62.5t-15 -74.5v-58q0 -4 3.5 -7.5t7.5 -3.5h47q4 0 7.5 3.5t3.5 7.5v57v1q-6 55 45 94q2 2 8 7q27 22 39 32.5t24.5 27.5t16.5 35t4 44q0 80 -45.5 126t-126.5 46zM544 91h-40q-6 0 -10 4t-4 10v41q0 6 4 10
t10 4h40q6 0 10 -4.5t4 -9.5v-41q0 -6 -4 -10t-10 -4z" />
    <glyph glyph-name="icon-test" unicode="&#xe605;" 
d="M607 391q13 0 22 10t9 23.5t-9 23.5t-22 10h-97v3l117 126q8 10 8 23.5t-8 23.5q-9 9 -22.5 9t-22.5 -9l-102 -110l-108 110q-10 11 -22.5 11t-22.5 -10.5t-10 -24t10 -23.5l117 -122v-7h-94q-14 0 -23 -10t-9 -23.5t9 -23.5t23 -10h94v-66h-94q-14 0 -23 -10t-9 -23.5
t9 -23.5t23 -10h94v-97q0 -14 9.5 -24t22.5 -10q14 0 22.5 9.5t8.5 24.5v97h97q14 0 23 9t9 24.5t-9 24.5t-23 9h-97v66h100zM512 -67q-91 0 -174.5 36t-144 96.5t-96.5 144t-36 174.5t36 174.5t96.5 144t144 96.5t174.5 36q85 0 160 -29q130 -49 210.5 -166t80.5 -256
q0 -12 9 -20.5t20.5 -8.5t20.5 8.5t9 20.5q0 159 -91 290.5t-239 187.5q-88 34 -180 34q-104 0 -198.5 -40.5t-163.5 -109.5t-109.5 -163.5t-40.5 -198.5q0 -211 150.5 -361.5t361.5 -150.5q12 0 20.5 8.5t8.5 20.5q0 14 -8.5 23t-20.5 9zM1013 134l-140 139q-6 10 -20.5 10
t-20.5 -10q-9 -6 -9 -20t9 -20l88 -88h-304q-12 0 -21 -9t-9 -20.5t9 -20.5t21 -9h304l-88 -92q-9 -6 -9 -20.5t9 -20.5q14 -9 21 -9q14 0 20 9l137 138q9 6 9 22q0 7 -2 12q2 2 -4 9z" />
    <glyph glyph-name="icon-test1" unicode="&#xe607;" horiz-adv-x="1026" 
d="M636 630l-122 -111l-128 111q-12 10 -27.5 10t-27 -10t-11.5 -23.5t12 -24.5l142 -121v-7h-113q-15 0 -26.5 -10t-11.5 -23.5t11.5 -24t26.5 -10.5h113v-65h-113q-15 0 -26.5 -10t-11.5 -23.5t11.5 -24t26.5 -10.5h113v-97q0 -13 11.5 -23.5t26.5 -10.5q16 0 27 9.5
t11 24.5v97h118q15 0 26.5 9.5t11.5 24.5t-11.5 24.5t-26.5 9.5h-118v65h118q15 0 26.5 10.5t11.5 24t-11.5 23.5t-26.5 10h-118v2l142 126q12 11 11.5 24t-11.5 24q-9 9 -27 9q-17 3 -29 -9zM512 896q-211 0 -361.5 -150.5t-150.5 -361.5t150.5 -361.5t361.5 -150.5
t361.5 150.5t150.5 361.5v2q0 15 -10.5 25.5t-25.5 10.5t-25.5 -10.5t-10.5 -25.5q0 -89 -35 -170t-93.5 -139.5t-139.5 -93t-170 -34.5q-89 -1 -171 33t-141.5 92.5t-94.5 139.5t-35 170t35 170.5t94 140.5t140.5 94t170.5 35h14q15 0 25.5 10.5t10.5 25.5t-10.5 25.5
t-25.5 10.5h-14zM814 860v-99h-97q-15 0 -25.5 -10.5t-10.5 -26t10.5 -26t25.5 -10.5h97v-96q0 -16 10.5 -26.5t26 -10.5t25.5 10.5t10 26.5v96h97q16 0 26 10.5t10 26t-10 26t-26 10.5h-97v99q0 15 -10 25.5t-26 10.5q-14 0 -25 -10.5t-11 -25.5z" />
    <glyph glyph-name="mima1" unicode="&#xe611;" 
d="M510.5 -128q-103.5 0 -191.5 51.5t-139.5 139.5t-51.5 192v191h765v-191q0 -104 -51 -192t-139.5 -139.5t-192 -51.5zM192 382v-127q0 -87 42.5 -160.5t116 -116t160 -42.5t160 42.5t116 116t42.5 160.5v127h-637zM510.5 31q-39.5 0 -67.5 28t-28 67v65q0 39 28 67
t67.5 28t67.5 -28t28 -67v-65q0 -39 -28 -67t-67.5 -28zM510.5 223q-13.5 0 -22.5 -9.5t-9 -22.5v-64q0 -13 9 -22.5t22.5 -9.5t22.5 9.5t9 22.5v64q0 13 -9 22.5t-22.5 9.5zM766 510h-64v137q0 75 -56 128t-135.5 53t-135.5 -53t-56 -128v-137h-63v137q0 101 74.5 173
t180 72t180.5 -72t75 -173v-137z" />
    <glyph glyph-name="jingcha" unicode="&#xe608;" 
d="M507 -107q-29 0 -74.5 12.5t-89.5 35.5q-116 61 -152 158l-1 4l-3 1q-49 13 -87 49q-41 39 -41 83q0 43 21 76t57 45l5 2v10q0 8 9 18l2 2v2q0 21 5 31v1v10l-1 2q-6 5 -8 8q130 42 358 42t358 -42q-2 -3 -7 -8l-12 -11h15q0 -3 2 -11q4 -11 4 -16v-3l2 -2q9 -9 9 -17
v-11l4 -1q37 -12 57 -46.5t16 -80.5v0v0q0 -41 -41 -81q-39 -39 -87 -51l-3 -1l-1 -4q-36 -97 -152 -158q-44 -23 -89.5 -35.5t-74.5 -12.5v0zM257 140q12 -45 47 -82t75.5 -57.5t76 -31.5t57.5 -11q23 0 60.5 11t73.5 30q99 54 122 141v1v1q0 9 9 15t23 6t36 13t34 30
q14 19 9 36q0 18 -12 41l-4 8l-6 -6q-10 -9 -24 -9q-13 0 -22.5 8t-9.5 18v34q0 29 -6 46l-2 8l-7 -4q-51 -30 -125 -50.5t-155 -20.5q-137 0 -280 71l-9 5v-11q0 -4 -3 -16q-3 -18 -3 -28v-33q0 -11 -9.5 -19t-22.5 -8q-14 0 -23 9l-7 6l-4 -8q-12 -23 -12 -42
q0 -25 38 -53q34 -25 52 -25q11 0 20 -6.5t13 -16.5v0zM108 516q-4 32 -57 107q-20 29 -27 40q-8 16 -6 20q0 1 6 1q65 0 121.5 9.5t92.5 21t73 33t54 34.5t45 37q24 19 36 28t30.5 17.5t36.5 8.5t38.5 -9t34.5 -18.5t41 -30.5q31 -22 49 -35t56 -34t72.5 -32t86.5 -20.5
t110 -9.5h6q-1 -5 -12 -17q-8 -9 -32 -33q-25 -25 -38.5 -40t-29 -38t-17.5 -39q-32 9 -80 17q-120 19 -280 19q-236 0 -410 -37v0zM412 658q0 -28 50 -59q24 -15 48 -25l3 -1l2 1q24 10 48 25q50 31 50 59v6h-5v78h-196v-84z" />
    <glyph glyph-name="shang-copy" unicode="&#xe601;" 
d="M511 890q-103 0 -196.5 -40t-161 -107.5t-107.5 -161t-40 -196.5t40 -196.5t107.5 -161t161 -107.5t196.5 -40t196.5 40t161 107.5t107.5 161t40 196.5t-40 196.5t-107.5 161t-161 107.5t-196.5 40zM842 54q-65 -65 -149 -101q-87 -36 -182 -36t-182 36q-84 36 -149 101
t-101 149q-36 87 -36 182t36 182q36 84 101 149t149 101q87 36 182 36t182 -36q84 -36 149 -101t100 -149q37 -87 37 -182t-37 -182q-35 -84 -100 -149v0zM752 199v173h-463v-173h47v132h369v-132h47zM282 588h479v-82h45v122h-154q45 29 85 63l-35 31q-36 -31 -85 -63
l29 -31h-102v94h-47v-94h-102l31 28q-37 33 -81 66l-33 -30q38 -31 72 -64h-148v-121h46v81zM498 316q0 -59 -26 -88q-52 -61 -248 -80q6 -12 19 -48q210 28 264 93q39 45 39 123h-48zM536 190q118 -37 248 -88l25 47q-101 35 -253 80zM706 402v145h-371v-145h45v15h281v-15
h45zM380 456v52h281v-52h-281z" />
    <glyph glyph-name="jiantou" unicode="&#xe71e;" 
d="M955 382l-441 503v-216h-129v-574h129v-215zM193 669v-574h128v574h-128zM64 669v-574h64v574h-64z" />
  </font>
</defs>
</svg>
